<svg xmlns="http://www.w3.org/2000/svg" width="21" height="22" fill="none" viewBox="0 0 21 22">
    <g clip-path="url(#clip0)">
        <path fill="#4285F4" d="M20.868 11.206c0-.901-.071-1.56-.225-2.241h-9.995v4.068h5.867c-.119 1.01-.757 2.533-2.177 3.556l-.02.137 3.16 2.52.22.023c2.01-1.912 3.17-4.726 3.17-8.063"/>
        <path fill="#34A853" d="M10.648 21.924c2.874 0 5.287-.974 7.05-2.655l-3.36-2.68c-.899.646-2.105 1.097-3.69 1.097-2.816 0-5.205-1.913-6.057-4.556l-.125.011L1.18 15.76l-.043.123c1.75 3.581 5.347 6.041 9.51 6.041z"/>
        <path fill="#FBBC05" d="M4.59 13.13c-.224-.682-.354-1.413-.354-2.168 0-.755.13-1.486.343-2.168l-.006-.145-3.327-2.661-.11.053C.417 7.527.002 9.196.002 10.962c0 1.766.414 3.435 1.136 4.921L4.59 13.13"/>
        <path fill="#EB4335" d="M10.648 4.239c1.999 0 3.347.889 4.116 1.632l3.005-3.02C15.923 1.083 13.522 0 10.648 0c-4.164 0-7.76 2.46-9.511 6.041l3.442 2.753c.864-2.643 3.253-4.555 6.069-4.555"/>
    </g>
    <defs>
        <clipPath id="clip0">
            <path fill="#fff" d="M0 0H20.879V22H0z"/>
        </clipPath>
    </defs>
</svg>
