<svg xmlns="http://www.w3.org/2000/svg" width="24" height="26" fill="none" viewBox="0 0 24 26">
    <path stroke="#fff" stroke-linecap="round" stroke-linejoin="round" stroke-width="2" d="M3 3.93h2l.4 2.039m0 0H21l-4 8.156H7M5.4 5.969L7 14.125m0 0l-2.293 2.338c-.63.642-.184 1.74.707 1.74H17m0 0c-.53 0-1.04.215-1.414.597-.375.383-.586.901-.586 1.442 0 .541.21 1.06.586 1.442.375.382.884.597 1.414.597.53 0 1.04-.215 1.414-.597.375-.382.586-.901.586-1.442 0-.54-.21-1.06-.586-1.442-.375-.382-.884-.597-1.414-.597zm-8 2.04c0 .54-.21 1.059-.586 1.441-.375.382-.884.597-1.414.597-.53 0-1.04-.215-1.414-.597C5.21 21.302 5 20.783 5 20.242c0-.54.21-1.06.586-1.442.375-.382.884-.597 1.414-.597.53 0 1.04.215 1.414.597.375.383.586.901.586 1.442z"/>
</svg>
