<svg xmlns="http://www.w3.org/2000/svg" width="181" height="202" fill="none" viewBox="0 0 181 202">
    <path fill="#F24140" d="M99 96.7c.6-1.3.9-2.8.4-4.1 0 0 0-.1.1-.1 2.6-.9 6.2-2.3 8.7-5.4.5-.6 1.4-.6 1.9-.1 0 0 .1 0 .1.1.6.7 0 2.3.3 2.9.3.6 3.9.8 4.3 1.5.3.8.3 1.2.2 1.5-.1.2-3.3 4.8-13.1 7.2-1.6.4-2.3.4-3.4.5 0 0-.1 0-.1.1-1.6 4.8 5.4 8.6 5.4 8.5-1-2-4-5.5-3-5.3 1-.1 2.6.5 3.3 1 3.6 3 5.3 6.8 7.5 7.6 2.1.9-4 1.9-9.8-.1-7.2-2.5-9.2-6.8-9.9-9.3 0 0 0-.1.1-.1 1.7-.2 3.2-1.1 4.1-2.8 0 0 .1-.4 0-.4-2.6 1.8-6.4 1.7-9 .1-.4-.2-.7.1-.4.5 1 1.7 2.5 2.5 4.1 2.6.1 0 .1.1.1.1-1.2 2.8-4.4 8.3-11.8 10.8-8.1 2.7-12.9 1.2-10.8.4 2.1-.8 5.3-6.9 10.5-9.6 1.2-.6 1.8-.5 2.5-.9 1-.2-2.1 3.3-3 5.3-.1.1 5.9-3.7 6.3-8.4 0 0 0-.1-.1-.1-1.1-.1-1.8-.2-3.3-.5-10.2-2.1-13-7-13.1-7.2-.1-.3-.2-.8.2-1.5.3-.7 4-.9 4.3-1.5.3-.6-.4-2.3.3-2.9l.1-.1c.6-.5 1.5-.4 1.9.1 2.5 3.1 6 4.5 8.7 5.4.1.1.1.2.1.3-.4 1.2-.1 2.6.5 3.9 0 .1 0 .1-.1.1-.6-.1-1.1-.2-1.7-.3-1.4-.3-2.7-.8-4-1.3-.1 0-.1 0-.1.1 1.9 1.5 4.6 3.5 7.2 3.4.6 0-.6-5.2 2.5-5 .8 0 1.6 0 2.5.1h2.6c.8 0 1.6 0 2.3-.1 2.9-.1 2 5 2.6 5 2.6.1 5.3-1.9 7.2-3.4.1 0 0-.1-.1-.1-1.3.6-2.7 1-4 1.3-.9.1-1.5.2-2.1.2 0 .1 0 .1 0 0z"/>
    <path fill="#FFCFA0" d="M93.8 184.2c.8.5.7 1.6-.2 2.1-9.1 6-27.5 11.9-45.3 9.9-11.6-1.3-17-6.6-17.1-6.6-.3-.2-.6-.3-1-.3-2.5.1-7.1 1-8.6-1.2-.1-.2-.3-.4-.4-.8-1.3-3.1 1.3-7.8 3.6-10.3 4.7-5.1 11.9-10.4 21.3-11.6 24-2.8 47.7 18.8 47.7 18.8zM139.9 146.5c.1.5.2 1.6.1 2.3-.4 2-2 4.1-4.7 6-1.5-.4-3.5-.9-4.9-1.2l9.5-7.1zM139 139.4c.3.9.5 3.2-.1 4.6v.1s-11.2 8.7-11.3 8.7c-1.1-.2-2.7-.5-3.6-.6 2.1-2.3 4.5-6.8 11.4-10.3 1.1-.5 2.3-1.6 3.6-2.5zM131.9 136.1c1.1.8 1.4 3.6.4 4.8-2.5 1.8-4.8 3.8-6.6 5.6-2.9 2.9-4.8 5.3-4.8 5.4-.8.1-2.9.6-3.7.8 0 0 3.6-6.6 5.1-8.3 1.2-1.3 4.4-3.6 6.9-5.3 1.5-1.2 2.7-3 2.7-3z"/>
    <path fill="#FFCFA0" d="M161.2 180.6c.6 2.5 1.3 5.8.1 7.3-2.7 3.4-6.7 3.1-6.9 3.1-.3 0-.5.1-.8.3-1.6 1.3-6.3 4.9-16 4.8-13.8-.2-26.9-7.6-38-14.8-10.2-6.6-26.2-17-43.5-18.9 3.4-1.7 8.9-4.7 15.4-5 .6 0 16 0 25.1.6 12.9.8 16.5-2.9 23.8-2.7 13.6.3 22.3 5.9 24.5 7.1 4.4 2.3 13.6 7.3 16.3 18.2zM68.3 50.2c0-.1-.6-2.7-.8-2.6l-4.1 1.9c-.1 0 0 .1 0 .1l1.8.1c.2 0 .2.2.1.3l-3 2.6c-.2.1 0 .4.2.3l4.2-1.3c.1 0 .2 0 .2.2L67 53h-.1c-1 .3-1.6.8-2 1.5-.5.8-.6 1.7-.7 2.4-.1 1.4 1.9 8.3 2.8 9.7.2.3.9 1.1 1.5-.9v-.1c-2.7-2.8 0-4-.1-5.6-.1-1.6-2.2-4.2-2.8-5-.1-.1 0-.1 0-.2s.1-.1.2-.1l2.9.9c.1 0 .3-.1.2-.2l-.6-5.2zM119.8 52.7l-3-2.6c-.1-.1-.1-.3.1-.3l1.8-.1c.1 0 .1-.1 0-.1l-4.1-1.9c-.2-.1-.7 2.5-.8 2.6l-.8 5.3c0 .1.1.2.2.2l2.9-1.1c.1 0 .2.2.2.3-.6.9-2.8 3.7-2.8 5.3-.1 1.6 2.6 2.8-.1 5.6v.1c.6 1.9 1.3 1.1 1.5.9 1-1.3 3-8.3 2.8-9.7-.1-.9-.3-2-1-2.8-.4-.5-1-.9-1.8-1.1h-.1l.1-1.2c0-.1.1-.2.3-.2l4.2 1.3c.4-.1.5-.4.4-.5zM101 52.2c-2.1-.1-3.6 1.3-4.3 2.1-.1.2-.4 0-.3-.2.8-4.7 3.7-5.5 6-4.3 1.4.7 3.4 2.4 4.5 3.3.2.1.4 0 .3-.2-.8-1.5-2.7-4.7-3.7-5.4-2.1-1.5-3.4-1-4.6-.8-4.1.6-4.8 7.3-4.8 7.9v.1c1.3 3.4.9 6.4.5 8-.1.3.3.5.4.3 1.3-1.8 1.9-3.7 1.8-5.2 1.7 1 3.5 1.4 5.4 1.5.2 0 .2-.2.1-.3-1-.3-1.9-.7-2.8-1.2-.2-.1-.2-.5.1-.5 2.6-.1 6.6-.4 7.8-.5.1 0 .1-.1 0-.2-1.5-.6-4.3-.8-5-.9-.1 0-.2-.1-.1-.3.2-.6 3-.4 4.4-.3.1 0-.5-.4-.8-.5-.6-.4-1.1-.8-1.7-1.1-.8-.5-2-1.2-3.2-1.3zm-15.2 1.9c0 .2-.2.3-.3.2-.7-.8-2.2-2.2-4.3-2.1h-.5c-.8.2-1.6.6-2.3 1.1-.8.4-1.5.9-2.2 1.5-.4.2-.7.4-1.1.6-.1 0 2.4-.3 3.6-.2.6.1 1 .3 1.1.4.1.1 0 .3-.1.3-.7.1-3.3.5-4.8 1.1-.1 0-.1.1 0 .2 1.1.1 5 .2 7.5.3.3 0 .3.4.1.5-.9.5-1.8.9-2.8 1.2-.1 0-.1.3.1.3 1.8-.1 3.6-.5 5.2-1.4.1-.1.2 0 .3.1.2.8.8 3.3 2 5.1.1.2.4.1.3-.1-.3-1-.6-2.8-.4-4.9 0-.3.1-.7.2-1.1.1-.3.1-.7.2-1.1.1-.4.3-.9.4-1.3v-.1c-.1-.6-.8-7.3-4.8-7.9-1.2-.2-2.5-.7-4.6.8-1 .7-2.8 3.8-3.7 5.4-.1.2.1.3.3.2 1.1-1 3.2-2.6 4.5-3.3 2.5-1.3 5.3-.5 6.1 4.2zm5.2 13c-.6-.1-1.7-.3-2.8-1-1.6-1-2.5.1-3.3-.4-.3-.2-.4-.4-.4-.6.1-.5.3-.9.7-1.3.5-.4.1-1.1-.5-1.1-2 .2-3.9 1-5.7 2-.3.1-.2.5.1.5 2.8-.1 3.8 1.2 4.1 1.7.1.1 0 .2-.1.3-3.1.9-5.7-.1-6.5-.5-.1-.1-.3 0-.3.1-.3 3.5 2.2 10.9 5.8 14.2.2.2.4 0 .3-.2-1-1.6-2.7-4.7-3.3-9.4 0-.2.2-.3.3-.2.3.2.8.4 1.2.5.1 0 .2.1.2.1 1.6 3.3 6 5.1 10.1 5.1h.2c4.2 0 8.5-1.8 10.1-5.1 0-.1.1-.1.2-.1.4-.1.9-.3 1.2-.5.1-.1.3 0 .3.2-.5 4.2-1.9 7.1-2.9 8.8-.2.3.2.5.4.3 3.3-3.5 5.6-10.4 5.3-13.7 0-.1-.2-.2-.3-.1-.8.4-3.3 1.4-6.5.5-.1 0-.2-.2-.1-.3.3-.5 1.3-1.8 4.1-1.7.3 0 .4-.4.1-.5-1.8-.9-3.7-1.8-5.7-2-.6-.1-.9.7-.5 1.1.4.4.6.8.7 1.3-.1.2-.2.4-.4.6-.8.6-1.7-.6-3.3.4-1.1.7-2.2.9-2.8 1 .1 0 .1 0 0 0 .1 0 0 0 0 0zm.1 23.5s-.1 0 0 0H91c-2.4 0-4.9-.9-6-1.5-3.8-2.3-8.1-8.8-9.6-12.2-.1-.2-.5-.1-.4.1.4 2 1 4 2 5.9 0 .1-.1.2-.1.1-.7-.6-1.4-1.4-2.1-2.2-2.1-2.6-3.9-7.5-4-11.8-.2-6.5.6-18.9.6-18.9s.1-1.7.2-1.8c1.3-.7 2.2-1.1 4.4-1.7 3.8-2.7 6.8-3 9.2-1.6 2.1-.2 3.2-.2 6-.2h.2c1.9 0 3.7.1 5.3.2 5.3-2.6 9.5 1.5 9.8 1.6 2 .6 3.4 1.2 4.5 1.7.1 0 .1.1.1.2l.1 1.6s.8 12.4.6 18.9c-.1 4.2-2 9.1-4 11.8-.7.9-1.4 1.6-2.1 2.2-.1.1-.2 0-.1-.1.9-1.6 1.5-3.4 1.9-5.1.1-.4-.4-.5-.6-.2-1.5 3.4-3.7 8.1-9.3 11.5-1.1.7-3.7 1.5-6 1.5h-.5c.1 0 .1 0 0 0zm2.8-10c1.9-.8 3.3-2.6 3.1-2.6-.8.3-2.5.8-3.3 1h-.1c-2.9.5-6 .1-8.5-1.2 0 0-.1 0 0 0 .9 1.1 1.9 2.2 3.1 2.7.4.2.7.4.9.8.6.8 1.3 1.5 1.9 1.5.7 0 1.4-.8 2-1.7.3-.2.6-.4.9-.5z"/>
    <path fill="#D39A72" d="M79 64.7s-1.2.6-1.8 1.2c-.4.4-.6.6-.7.8h.2c.8.4 3.3 1.4 6.5.5.1 0 .2-.2.1-.3-.3-.5-1.3-1.8-4.1-1.7-.4 0-.5-.4-.2-.5zm14.8-17.9c1.3-1.1 2.7-1.8 2.7-1.8-1.6-.1-3.4-.2-5.3-.2H91c-1.9 0-2.9 0-4.1.1-.6 0-1.2.1-1.8.2H85s1.5.6 3 2c1 .8 4.4.9 5.8-.3zM76.8 59h.3c.1 0 0-.1-.3 0zm26.3 6.2c-2.8-.1-3.8 1.2-4.1 1.7-.1.1 0 .2.1.3 3.1.9 5.7-.1 6.5-.5h.2c-.1-.1-.3-.4-.7-.8-.5-.5-1.5-1.1-1.7-1.2 0 .1-.1.5-.3.5zm8.4-.8v-1.9l-.1-4v.1c0-.8-.1-1.7-.1-2.5-.1-1.1-.1-2.1-.2-3-.1-1.8-.2-3-.2-3l-.1-.8c0-.4-.1-.8-.1-1-1-.5-2.2-1-3.9-1.6-.2 0-.3-.1-.5-.1 0 0 1.5 2.4.9 6.3 0 .2-.2.3-.3.2-1.1-1-3.2-2.6-4.5-3.3-2.3-1.2-5.2-.4-6 4.3 0 .2.2.3.3.2.7-.8 2.2-2.2 4.3-2.1 1.2.1 2.4.8 3.3 1.5.6.4 1.1.8 1.7 1.1.2.1.4.3.6.4.9.2 1.7.3 2.3.5 2.7.6-.4 1.6-.4 1.6 5.1 3.6-1.8 1.8-3 1.7.7.1 3.1 1.4 4 3.1.8 1.5 1 2.7.8 3.6-.2.8-.5 1.4-.9 1.9-.1.2-.3.3-.4.4-.8.7-1.8.5-3.2-1.2.1 1.4-.2 3.6-1 5.8-.1.2-.1.3-.2.5s-.1.3-.2.4c-.1.2-.1.3-.2.4-.1.2-.1.3-.2.4v.1c-.1.1-.1.3-.2.4 0 0 0 .1-.1.1-.1.1-.1.3-.2.4 0 0 0 .1-.1.1-.1.1-.1.2-.2.3 0 0 0 .1-.1.1-.1.1-.1.2-.2.3 0 .1-.1.1-.1.1-.1.1-.1.2-.2.3l-.1.1c-.1.1-.1.2-.2.3 0 .1-.1.1-.1.1-.1.1-.1.2-.2.3 0 .1-.1.1-.1.2-.1.1-.1.2-.2.3 0 .1-.1.1-.1.2-.1.1-.1.2-.2.3 0 .1-.1.1-.1.2-.1.1-.1.2-.2.2 0 .1-.1.1-.1.2-.1.1-.1.2-.2.2-.1.1-.1.2-.2.2 0 .1-.1.1-.1.2-.1.1-.2.2-.2.3 0 0 0 .1-.1.1l-.3.3c-.2.2-.6 0-.4-.3.1-.1.1-.2.2-.3l.1-.1c0-.1.1-.1.1-.2s.1-.1.1-.2.1-.1.1-.2.1-.1.1-.2.1-.1.1-.2.1-.2.1-.2c0-.1.1-.1.1-.2s.1-.2.1-.3c0-.1.1-.1.1-.2s.1-.2.1-.3c0-.1.1-.1.1-.2.1-.1.1-.2.1-.3 0-.1 0-.1.1-.2s.1-.2.1-.4c0-.1 0-.1.1-.1.1-.1.1-.3.1-.4v-.1c.1-.2.1-.3.1-.5V75c.3-.9.5-2 .7-3.1 0-.3.1-.6.1-.9v-.1l-.3-.1c0 .1-1.6 4.4-5.7 6.7l-.1.1h.1v.1l-.3.3-.1.1c0 .1-.1.1-.1.1-.2.2-.5.4-.8.7l-.2.2h-.1l-.2.2h-.1c.6.6.6.7.5.7-.3.2-.6.4-1 .6-.3.1-.6.4-.8.6 0 .1-.1.1-.1.2s-.1.1-.1.2-.1.1-.1.2-.1.1-.1.1l-.1.1-.1.1-.1.1-.1.1-.1.1h-.1s-.1 0-.1.1h-.1s-.1 0-.1.1h-.2-.1-.2H91c-.6 0-1.2-.5-1.7-1.2-.1-.1-.2-.2-.2-.3-.2-.3-.6-.6-.9-.8-.2-.1-.3-.1-.4-.2-.1 0-.1-.1-.2-.1-.1-.1-.2-.1-.3-.2-.1 0-.1-.1-.2-.1-.1-.1-.2-.1-.2-.2s-.1-.1-.2-.2l-.2-.2c-.1-.1-.2-.1-.2-.2l-.2-.2c-.1-.1-.2-.2-.2-.3l-.1-.1-.3-.3-.1-.1c-.1-.1-.2-.3-.3-.4-4.2-2.3-5.7-6.7-5.7-6.7l-.3.1v.2c.5 4.7 2.3 7.8 3.3 9.4.1.2-.1.4-.3.2l-.3-.3c-.2-.2-.4-.5-.6-.7-.7-.8-1.4-1.8-2-2.9 0-.1-.1-.1-.1-.1-.6-1.1-1.1-2.2-1.5-3.3 0-.1-.1-.1-.1-.2-.7-2-1.2-3.9-1.3-5.5v-.5-.7c-1.3 1.6-2.3 1.8-3 1.3-.2-.2-.5-.5-.8-.9-.2-.4-.4-.8-.6-1.3-.2-1-.2-2.3.8-3.9.9-1.7 3.3-2.9 4-3.1-1.3.1-8.2 1.9-3-1.7 0 0-3.1-1-.4-1.6.6-.1 1.3-.3 2-.4.3-.2.6-.3.9-.5.7-.5 1.4-1 2.2-1.5.7-.5 1.5-.9 2.3-1.1h.5c2.1-.1 3.6 1.3 4.3 2.1.1.2.4 0 .3-.2-.8-4.7-3.7-5.5-6-4.3-1.4.7-3.4 2.4-4.5 3.3-.1.1-.3 0-.3-.1-.6-3.9.9-6.3.9-6.3-1.9.5-2.8.9-3.9 1.4-.2.1-.3.2-.5.3-.1 0-.2 1.8-.2 1.8s-.2 4.5-.4 8.2v-.1c-.1 1.9-.1 3.9-.2 5.9v5c.2 4.2 2 9.1 4 11.8.7.9 1.4 1.6 2.1 2.2.1.1.2 0 .1-.1-1-1.8-1.6-3.9-2-5.9-.1-.3.3-.4.4-.1 1.5 3.4 5.7 9.9 9.6 12.2 1.1.7 3.7 1.5 6 1.5h.2c2.4 0 4.9-.9 6-1.5.2-.1.4-.2.6-.4 1.1-.7 2.1-1.5 3-2.3l.3-.3.3-.3.1-.1.3-.3s0-.1.1-.1l.3-.3.1-.1c.1-.1.2-.2.2-.3l.1-.1c.1-.1.2-.2.2-.3l.1-.1c.1-.1.1-.2.2-.3l.1-.1c.1-.1.1-.2.2-.3l.1-.1c.1-.1.1-.2.2-.3l.1-.1c.1-.1.1-.2.2-.3l.1-.1c.1-.1.1-.2.2-.3l.1-.1c.1-.1.1-.2.2-.3l.1-.1c.1-.1.1-.2.2-.2l.1-.1c.1-.1.1-.2.1-.2l.1-.1c0-.1.1-.2.1-.2 0-.1.1-.1.1-.1 0-.1.1-.2.1-.2 0-.1.1-.1.1-.1 0-.1.1-.2.1-.2 0-.1.1-.1.1-.1 0-.1.1-.1.1-.2s.1-.1.1-.1c0-.1.1-.1.1-.2s.1-.1.1-.1c0-.1.1-.1.1-.2s.1-.1.1-.2.1-.1.1-.2.1-.1.1-.2.1-.1.1-.2.1-.1.1-.2 0-.1.1-.2c0-.1.1-.2.1-.2v-.1c.1-.1.1-.2.1-.3.2-.3.7-.2.6.2-.1.2-.1.5-.2.7v.1c-.1.2-.1.4-.2.6v.1c-.1.2-.1.4-.2.7-.1.2-.2.5-.3.7-.2.5-.3.9-.7 1.5-.1.2-.2.5-.3.7v.1h.1c.7-.6 1.4-1.4 2.1-2.2 2.1-2.6 3.9-7.5 4-11.8-.3-1.1-.3-2.7-.3-4.4zM91.1 87.7c-3.3 0-5.9-1.1-5.9-2.3 0-1.3 2.7-2.3 5.9-2.3s5.9.9 5.9 2.2c0 1.3-2.6 2.4-5.9 2.4zm14-28.7h.3c-.3-.1-.4 0-.3 0z"/>
    <path fill="#282828" d="M99.6 57.9c.9.5 1.8.9 2.8 1.2.2 0 .1.3-.1.3-1.9-.1-3.7-.5-5.4-1.5.1 1.5-.6 3.4-1.8 5.2-.2.2-.5.1-.5-.2.4-1.6.8-4.6-.5-8v-.1c.1-.6.8-7.3 4.8-7.9 1.2-.2 2.5-.7 4.6.8 1 .7 2.8 3.8 3.7 5.4.1.2-.1.3-.3.2-1.1-1-3.2-2.6-4.5-3.3-2.3-1.2-5.2-.4-6 4.3 0 .2.2.3.3.2.7-.8 2.2-2.2 4.3-2.1 1.2.1 2.4.8 3.3 1.5.6.4 1.1.8 1.7 1.1.3.1.8.5.8.5-1.4-.1-4.2-.3-4.4.3 0 .1 0 .3.1.3.8.1 3.6.3 5 .9.1 0 .1.1 0 .2-1.1.1-5.2.4-7.8.5-.3-.2-.3.1-.1.2z"/>
    <path fill="#282828" d="M171.8 161c.6 6-2.9 17.7-6 20.2-.1.1-.3.2-.4.3.1 2.6.1 6.3-1.2 8.2-2.7 4.1-6.7 5.2-8 5.4-1.4.9-6.6 3.9-17.6 3.9h-.9c-12.5-.2-24.4-5.9-34.7-12.2-12.3 6-30 12.7-47.8 12.7-2.5 0-5-.1-7.4-.4-10.6-1.2-16.6-4.6-18.3-5.6-2.2.1-8.6-.1-11.1-3.7-.7-1.1-3.4-4.4-3.8-4.8-.2-.2-4.5-5.5-5.6-16.2-.2-2.4-.1-14.2 5.4-19.1-.1-.2-.1-.4-.1-.6 3.2-24.7 17.9-42.2 19.7-43.1.3-.2.5-.7.7-1.1l.3-.6c.6-1.1 2.2-1.6 4.1-2.2.3-.1.7-.2.9-.3.3-.2 15.6-6.8 17.5-7.6 4.5-1.9 7.3-3 7.8-3.9.7-1.6 2.3-2.1 3.9-2.4 0 0 .1 0 .1-.1.1-1.1.4-2.1 1.1-2.8l.2-.2c.7-.7 1.6-1 2.6-1.1.1 0 .1-.1.1-.1-.3-.3-.5-.6-.8-.9-2.4-3.1-4.2-8.2-4.6-12.6-1.2 0-2.3-.6-3-1.6-1.3-1.8-3.6-9.4-3.4-11.7 0-.3.1-.5.1-.8v-.1c-.8-.3-1.5-1-1.9-1.8-.5-1.2-.1-2.5.8-3.4v-.1c-.2-.6-.2-1.3.1-2 .3-.7.9-1.2 1.6-1.6l3.5-1.7h-.2c-.9-.2-9-2.4-13-7.9-4.8-6.7-1.7-13.6 2-17.7.7-.7.7-.7.6-1.3-.3-1.8-.8-4 1.5-6.4 2-2.2 4.4-1.8 6.2-2 1.7-.3 3.2-.5 5.6-2.2 3-2.4 7.2-5.8 13-5.8 2.8 0 5.6.9 8.6 2.1 2.9 1.2 5 2.3 6.7 3.2 2.6 1.3 4.3 2.5 6.1 2.5.4 0 .8 0 1.3-.1.7-.1 1.3-.1 1.9-.1 3.2 0 6.2.5 8.7 2.9 2 1.8 3.3 4.4 4.3 7.1 1.8 4.6 2.7 9.2 4 10.9.5.6.9 1.1 1.4 1.7 1.8 2.1 4.8 4.7 4.6 9.1-.1 3.3-2.8 6.3-7.2 8.1 0 0-.1 0 0 .1 0 .3 0 .5-.1.8 0 .1 0 .2-.1.3v.1c.9.9 1.2 2.2.8 3.4-.3.9-1 1.5-1.9 1.8 0 0-.1 0-.1.1 0 .3.1.5.1.8.2 2.3-2.1 9.9-3.4 11.7-.8 1-1.8 1.6-3 1.6-.3 4.4-2.2 9.5-4.6 12.6-.3.4-.6.7-.9 1.1h.2c1.1 0 2.1.4 2.9 1.1l.2.2c.7.7 1.1 1.6 1.1 2.8 0 0 0 .1.1.1 1.6.4 3.2.8 3.9 2.4.4 1 3.5 2.1 8.5 4.3 2.7 1.1 9.2 3.9 12.4 5.3.9.4 1.6.7 2.1.9h.1l-.1.1c1.4.6 1.9.9 2.1 1 .2.1.6.2.9.3 1.9.6 3.4 1.1 4.1 2.2l.3.6c.2.4.4.9.7 1.1 1.1.6 5.1 5.8 8.8 12.7 3.5 6.6 8 17 9.5 29.2.4.4.9.9 1.3 1.6 2.4 2.5 3.6 6.4 4.1 11.3zm-8.7 11.6c.7 1.4 5.7-.7 5.3-11.6-.3-9.9-4.7-11.9-4.7-11.9-.1-.1-.1-.1-.3-.1-8.8-6.6-17.9-6.8-21.3-6.6 0 .6-.1 1.2-.3 1.8.4.7 1.3 2.6.9 5.1-.4 2.3-1.8 4.6-4.2 6.6 1.6.5 3.2 1.1 4.8 1.8 10.3 4 16.9 8.8 19.8 14.9zm-1.8 15.3c1.2-1.5.5-4.8-.1-7.3-2.7-10.8-12-15.9-16.2-18.2-2.2-1.2-10.9-6.8-24.5-7.1-7.3-.1-10.9 3.6-23.8 2.7-9.2-.6-24.5-.6-25.1-.6-6.5.3-12 3.3-15.4 5 17.3 1.9 33.2 12.3 43.5 18.9 11.1 7.2 24.2 14.5 38 14.8 9.7.1 14.4-3.5 16-4.8.2-.2.5-.3.8-.3.1 0 4.1.3 6.8-3.1zm1.6-43c-3.1-18.8-12.6-32.8-15.3-35.8 0 0-3.8 3.6-4.1 3.5-.7-.4 2-5.6 2-5.6l.1-.1c0-1.9-1.9-2.2-2.9-2-.9-.3-10.4-5.1-22-10-.5-.2-1.1-.2-1.6.1-.9.9-2.7 3.5-5.9 5.6-1.5.8-4.2 2-5.3 2.4 3.1 1.3 9.4 3.5 13 4.9.7.3.9 1.1.6 1.8 0 0-6.1 17.3-9.1 43.6-.1.7.9.3 1.5.2l5.8-10.4c.1-.2.2-.4.4-.5l11.4-8.5c.3-.3.8-.4 1.2-.3.1 0 .3.1.4.1 2.7-10.1 8.3-19.3 8.9-18.9.7.4-4.2 9.5-6.4 23.5v.3c1.1-.6 2.3-1.2 3.4-1.7.6-.3 1.4-.1 1.8.5 0 .1.5.7.9 1.8 3.4-.3 13.3.2 21.2 5.5zm-22.9 3.8c.1-.7 0-1.8-.1-2.3l-9.5 7.1c1.4.3 3.4.8 4.9 1.2 2.7-1.9 4.3-4 4.7-6zm-1.1-4.7c.7-1.4.5-3.8.1-4.6-1.3.9-2.6 2-3.7 2.6-6.9 3.4-9.3 8-11.4 10.3.9.1 2.5.4 3.6.6.1-.1 11.3-8.8 11.4-8.9 0 .1 0 .1 0 0zm-6.6-3.1c1-1.2.7-4-.4-4.8 0 0-1.2 1.8-2.9 2.9-2.4 1.7-5.7 4-6.9 5.3-1.5 1.7-5.1 8.3-5.1 8.3.8-.2 2.9-.7 3.7-.8 0-.1 1.9-2.5 4.8-5.4 2-1.7 4.3-3.7 6.8-5.5zm-6.1-99.7c.2-4.1-1.7-5.2-4.2-8.4s-3.3-7.7-5.1-12.2c-1.8-4.5-6.1-9.6-12.4-8.6-5.3.7-7.2-2-15.5-5.4-8.3-3.4-14.1-1-19.2 2.7-5.5 4-8.3 1.6-11.2 4.6-3.2 3.4.7 3.8-2.6 7.3s-4.9 9.1-1.3 14.2C58 40 65.1 41.9 66 42.2c.1 0 .1 0 .1-.1 0-.7 0-5.5-1.9-6.2-2.9-1-5.7-3.6-7.1-6.1 0-.1.1-.2.1-.1 3.1 3 8.4 3.4 12 2.6 1.5-.3-6.3-2.5-9-10.6 0-.1 0-.1.1-.1 3.3 3.5 7.8 5.9 12.6 7 7.2 1.6 6.3.1 6-.1-.6-.4-8.1-7.6-8.4-15.2 0 0 3 6.8 8.2 10.2 7.7 5 15.3 5.3 13.3-2.9 0-.1.1-.1.1 0 1.8 3.4 7 7.1 12.3 8.9 4 1.4 4.5.7 8.8 3 3.7 1.9 6.3 6.6 8.9 7.3.1 0 .1.1 0 .1-2.1.4-4.2.2-5.8-1-.1 0-.1 0-.1.1l-.1 7.1s0 .1.1.1c4.2 1.3 9.9-1 10-5zM119.6 53c.2.1.3-.2.2-.3l-3-2.6c-.1-.1-.1-.3.1-.3l1.8-.1c.1 0 .1-.1 0-.1l-4.1-1.9c-.2-.1-.7 2.5-.8 2.6l-.8 5.3c0 .1.1.2.2.2l2.9-1.1c.1 0 .2.2.2.3-.6.9-2.8 3.7-2.8 5.3-.1 1.6 2.6 2.8-.1 5.6v.1c.6 1.9 1.3 1.1 1.5.9 1-1.3 3-8.3 2.8-9.7-.1-.9-.3-2-1-2.8-.4-.5-1-.9-1.8-1.1h-.1l.1-1.2c0-.1.1-.2.3-.2l4.4 1.1zm-9.2 98.4c3.4-24.8 7.2-37.7 8.5-41.4-2.8-1.5-7-3-9.8-4.2 1.7 1.8 3.8 4.3 5.1 5.7.3.6.3 1.3.2 1.8-.6 3.1-4.7 3.1-6.2 3.1-1.4 0-4.3-.2-7.6-1.3-4.2-1.4-7.4-3.8-9.6-6.8h-.1c-2.8 3.8-6.6 6.8-11.2 8.3-2.8.9-6.1 1.5-8.9 1.5-1.4 0-4.9.1-5.5-2.7-.2-1.2.6-3 2.2-3.7.2-.1.5-.4.8-.8 0 0 3.6-6 7.5-7.4.1 0 .1-.1 0-.1-1.3-.4-8.1-3.3-12.3-7.8-.5-.6-1.4-.8-2.1-.5-8.8 3.5-20.7 9.6-21.6 9.8-2.9-.3-2.8 1.3-2.5 1.8 0 0 3.1 6.1 2.4 6.5-3.4-5-5.2-3.9-5.8-3.1-1.6 1.9-4.2 5.4-6.9 10.3-3.4 6.1-6.5 15-8.3 26.7 7.3-3.3 16.2-5.7 28.3-5.2-.3-8.6-6.9-26.3-6-26.7.7-.3 8.8 17.9 9 27.1.5.1 2.4 0 3.7 3.2.7 1.6 1.3 5.6.9 10-.2 2.3 2.2 3.9 4.2 2.9 3.5-1.8 6.9-3 12.6-3.4.2 0 17.7.2 27.2.7 3.5.2 5.9-.2 8-.6 1.8-.4 3.6-1.8 3.8-3.7zm4.5-58.5c.1-.3.2-.8-.2-1.5-.3-.7-4-.9-4.3-1.5-.3-.6.4-2.3-.3-2.9 0 0-.1 0-.1-.1-.6-.5-1.5-.4-1.9.1-2.5 3.1-6 4.5-8.7 5.4 0 .1 0 .1-.1.1.5 1.3.1 2.7-.4 4.1 0 .1 0 .1.1.1.6-.1 1.1-.2 1.7-.3 1.4-.3 2.7-.8 4-1.3.1 0 .1 0 .1.1-1.9 1.5-4.6 3.5-7.2 3.4-.6 0 .3-5.1-2.6-5-.7 0-1.5 0-2.3.1h-2.6c-.9 0-1.7 0-2.5-.1-3-.1-1.9 5-2.5 5-2.6.1-5.3-1.9-7.2-3.4-.1 0 0-.1.1-.1 1.3.6 2.7 1 4 1.3.6.1 1.1.2 1.7.3.1 0 .1-.1.1-.1-.5-1.3-.9-2.7-.5-3.9-.1-.1-.1-.2-.1-.3-2.6-.9-6.2-2.3-8.7-5.4-.5-.6-1.4-.6-1.9-.1 0 0-.1 0-.1.1-.7.7 0 2.3-.3 2.9-.3.6-3.9.8-4.3 1.5-.3.8-.3 1.2-.2 1.5.1.2 2.9 5.1 13.1 7.2 1.6.3 2.3.4 3.3.5 0 0 .1 0 .1.1-.3 4.7-6.3 8.6-6.3 8.4 1-2 4-5.5 3-5.3-.7.4-1.3.3-2.5.9-5.1 2.6-8.3 8.7-10.5 9.6-2.1.9 2.7 2.4 10.8-.4 7.4-2.5 10.6-8 11.8-10.8 0-.1 0-.1-.1-.1-1.6-.1-3.1-1-4.1-2.6-.2-.4.1-.7.4-.5 2.6 1.6 6.4 1.8 9-.1.1 0 0 .3 0 .4-1 1.7-2.5 2.5-4.1 2.8-.1 0-.1.1-.1.1.7 2.4 2.6 6.8 9.9 9.3 5.8 2 12 1 9.8.1-2.2-.9-3.8-4.7-7.5-7.6-.7-.5-2.3-1.1-3.3-1-1-.2 2.1 3.3 3 5.3.1.1-7-3.7-5.4-8.5 0 0 0-.1.1-.1 1.1-.1 1.8-.1 3.4-.5 10.1-2.4 13.3-7 13.4-7.2zm-1-56.8s0-.1 0 0c-7.9-5.6-37.6-5.6-45.4-.1v.1c0 .5.2 4.5.2 9 0 .1.1.1.1.1.9-.6 7.7-4.2 22.5-4.2 15.6 0 21.6 3.7 22.4 4.3.1 0 .1 0 .1-.1-.1-4.5 0-8.6.1-9.1zM111.5 69c.2-6.5-.6-18.9-.6-18.9l-.1-1.6c0-.1 0-.1-.1-.2-1.1-.5-2.5-1.2-4.5-1.7-.3-.1-4.4-4.2-9.8-1.6-1.6-.1-3.4-.2-5.3-.2h-.2c-2.8 0-3.8 0-6 .2-2.4-1.3-5.4-1.1-9.2 1.6-2.3.5-3.1 1-4.4 1.7-.1 0-.2 1.8-.2 1.8s-.6 12.4-.4 18.9c.2 4.2 2 9.1 4 11.8.7.9 1.4 1.6 2.1 2.2.1.1.2 0 .1-.1-1-1.8-1.6-3.9-2-5.9-.1-.3.3-.4.4-.1 1.5 3.4 5.7 9.9 9.6 12.2 1.1.7 3.7 1.5 6 1.5h.2c2.4 0 4.9-.9 6-1.5 5.6-3.4 7.8-8.1 9.3-11.5.2-.3.7-.2.6.2-.4 1.8-1 3.5-1.9 5.1 0 .1.1.2.1.1.7-.6 1.4-1.4 2.1-2.2 2.2-2.7 4.1-7.6 4.2-11.8zM93.6 186.3c.8-.5.9-1.6.2-2.1 0 0-23.7-21.5-47.5-18.6-9.4 1.1-16.6 6.5-21.3 11.6-2.3 2.5-5 7.1-3.6 10.3.1.3.3.6.4.8 1.5 2.2 6.1 1.3 8.6 1.2.3 0 .7.1 1 .3 0 0 5.5 5.4 17.1 6.6 17.6 1.8 36.1-4.1 45.1-10.1zM68.9 55.7c.1 0 .3-.1.2-.2l-.8-5.3c0-.1-.6-2.7-.8-2.6l-4.1 1.9c-.1 0 0 .1 0 .1l1.8.1c.2 0 .2.2.1.3l-3 2.6c-.2.1 0 .4.2.3l4.2-1.3c.1 0 .2 0 .2.2L67 53h-.1c-1 .3-1.6.8-2 1.5-.5.8-.6 1.7-.7 2.4-.1 1.4 1.9 8.3 2.8 9.7.2.3.9 1.1 1.5-.9v-.1c-2.7-2.8 0-4-.1-5.6-.1-1.6-2.2-4.2-2.8-5-.1-.1 0-.1 0-.2s.1-.1.2-.1l3.1 1zm-18 106.4c2-4.3 1.5-10.2.9-13.9-.3-1.6-1.5-2.9-3.2-3.1-2.1-.3-4.2-.4-6.2-.4-10.3 0-18.4 3.3-24.2 6.7-5.2 3.1-6.1 10.7-5.8 16.3.4 9.1 4.6 11.7 5.9 10.2 1.1-1.3 2.4-2.8 4-4.3 4.8-4.5 12.7-10.1 23.5-11.4 1.6-.1 3.3-.2 5.1-.1z"/>
    <path fill="#fff" d="M168.5 161c.4 10.9-4.6 13-5.3 11.6-3-6.1-9.5-10.8-19.7-15-1.6-.7-3.2-1.3-4.8-1.8 2.4-2.1 3.8-4.3 4.2-6.6.4-2.5-.5-4.3-.9-5.1.2-.6.3-1.2.3-1.8 3.3-.2 12.4 0 21.3 6.6.1.1.1.1.3.1-.1.1 4.2 2.1 4.6 12z"/>
    <path fill="#fff" d="M147.6 109c2.6 3.1 12.2 17 15.3 35.8-7.9-5.3-17.8-5.7-21.1-5.5-.4-1.1-.8-1.7-.9-1.8-.4-.6-1.1-.8-1.8-.5-1.2.5-2.3 1.1-3.4 1.7v-.3c2.2-13.9 7.1-23 6.4-23.5-.7-.4-6.3 8.8-8.9 18.9-.1-.1-.2-.1-.4-.1-.4-.1-.9 0-1.2.3l-11.4 8.5c-.2.1-.3.3-.4.5l-5.8 10.4c-.7.2-1.6.5-1.5-.2 3.1-26.3 9.1-43.6 9.1-43.6.3-.7 0-1.6-.6-1.8-3.7-1.4-9.9-3.6-13-4.9 1.1-.5 3.8-1.6 5.3-2.4 3.2-2.1 5-4.7 5.9-5.6.5-.3 1.1-.3 1.6-.1 11.6 4.9 21.1 9.7 22 10 1-.2 2.9.1 2.9 2l-.1.1s-2.6 5.2-2 5.6c.2.2 4-3.5 4-3.5zM122 32.8c2.5 3.2 4.4 4.3 4.2 8.4-.2 4-5.8 6.3-9.8 5.2 0 0-.1 0-.1-.1l.1-7.1c0-.1.1-.1.1-.1 1.7 1.1 3.8 1.3 5.8 1 .1 0 .1-.1 0-.1-2.6-.8-5.2-5.4-8.9-7.3-4.3-2.2-4.8-1.6-8.8-3-5.4-1.9-10.5-5.5-12.3-8.9 0-.1-.2 0-.1 0 2 8.2-5.7 7.9-13.3 2.9-5.2-3.4-8.2-10.2-8.2-10.2.3 7.6 7.8 14.8 8.4 15.2.3.2 1.2 1.8-6 .1-4.8-1.1-9.3-3.5-12.6-6.9 0 0-.1 0-.1.1 2.7 8.1 10.5 10.3 9 10.6-3.6.8-8.9.5-12-2.6-.1-.1-.2 0-.1.1 1.4 2.6 4.2 5.1 7.1 6.1 2 .7 1.9 5.4 1.9 6.2 0 0 0 .1-.1.1-.9-.2-8-2.2-11.3-6.8-3.6-5.1-2-10.6 1.3-14.2 3.3-3.6-.7-3.9 2.6-7.4 2.8-3 5.6-.6 11.2-4.6 4.9-3.8 10.7-6.3 19-2.9s10.2 6.1 15.5 5.3c6.3-.9 10.6 4.1 12.4 8.6 1.8 4.5 2.6 9 5.1 12.3z"/>
    <path fill="#fff" d="M118.9 109.9c-1.3 3.8-5.1 16.6-8.5 41.4-.3 2-2 3.4-3.9 3.8-2.1.4-4.4.8-8 .6-9.4-.6-27-.7-27.2-.7-5.6.4-9.1 1.6-12.5 3.4-2 1-4.4-.6-4.2-2.9.4-4.4-.3-8.3-.9-10-1.3-3.2-3.2-3.1-3.7-3.2-.2-9.2-8.3-27.4-9-27.1-.8.3 5.8 18.1 6 26.7-12.1-.5-21 2-28.3 5.2 1.8-11.8 4.9-20.7 8.3-26.7 2.7-4.9 5.3-8.4 6.9-10.3.6-.8 2.4-1.9 5.8 3.1.7-.4-2.4-6.5-2.4-6.5-.3-.5-.3-2.1 2.5-1.8.9-.3 12.7-6.3 21.6-9.8.7-.3 1.6-.1 2.1.5 4.2 4.6 11.1 7.4 12.3 7.8.1 0 .1.1 0 .1-3.9 1.4-7.5 7.4-7.5 7.4-.3.4-.7.7-.8.8-1.6.7-2.4 2.6-2.2 3.7.6 2.8 4.1 2.7 5.5 2.7 2.8 0 6.1-.6 8.9-1.5 4.6-1.6 8.4-4.5 11.2-8.3h.1c2.1 3 5.3 5.3 9.6 6.8 3.2 1.1 6.1 1.3 7.6 1.3s5.6 0 6.2-3.1c.1-.6.1-1.2-.2-1.8-1.2-1.4-3.3-3.9-5.1-5.7 2.8 1.1 7 2.6 9.8 4.1zM113.8 36c.1 0 .1.1 0 0 0 .5-.1 4.7-.1 9.2 0 .1-.1.1-.1.1-.9-.6-6.8-4.3-22.5-4.3-14.8 0-21.5 3.7-22.5 4.2-.1 0-.1 0-.1-.1 0-4.5-.2-8.6-.2-9V36c8-5.5 37.7-5.5 45.5 0z"/>
    <path fill="#fff" d="M51.8 148.2c.6 3.7 1.1 9.6-.9 13.9-1.7 0-3.5.1-5.2.3-10.8 1.2-18.7 6.9-23.5 11.4-1.6 1.5-2.9 2.9-4 4.3-1.3 1.6-5.6-1.1-5.9-10.2-.2-5.6.7-13.3 5.8-16.3 5.8-3.4 13.9-6.7 24.2-6.7 2 0 4.1.1 6.2.4 1.7 0 3 1.3 3.3 2.9z"/>
    <path fill="#282828" d="M85.1 77.8c2.6 1.3 5.7 1.6 8.5 1.2h.1c.8-.1 2.5-.7 3.3-1 .1-.1-1.2 1.7-3.1 2.6-.3.2-.6.4-.8.7-.6.9-1.3 1.7-2 1.7-.6 0-1.3-.7-1.9-1.5-.2-.3-.6-.6-.9-.8-1.3-.6-2.3-1.7-3.2-2.9z"/>
    <path fill="#282828" d="M91 67.1s.1 0 0 0h.2c.6-.1 1.7-.3 2.8-1 1.6-1 2.5.1 3.3-.4.3-.2.4-.4.4-.6-.1-.5-.3-.9-.7-1.3-.5-.4-.1-1.1.5-1.1 2 .2 3.9 1 5.7 2 .3.1.2.5-.1.5-2.8-.1-3.8 1.2-4.1 1.7-.1.1 0 .2.1.3 3.1.9 5.7-.1 6.5-.5.1-.1.3 0 .3.1.3 3.3-2 10.2-5.3 13.7-.2.2-.6 0-.4-.3 1-1.7 2.4-4.7 2.9-8.8 0-.2-.2-.3-.3-.2-.3.2-.8.4-1.2.5-.1 0-.2.1-.2.1-1.6 3.3-6 5.1-10.1 5.1h-.2c-4.2 0-8.5-1.8-10.1-5.1 0-.1-.1-.1-.2-.1-.4-.1-.9-.3-1.2-.5-.1-.1-.3 0-.3.2.5 4.7 2.3 7.8 3.3 9.4.1.2-.1.4-.3.2-3.6-3.3-6.1-10.7-5.8-14.2 0-.1.2-.2.3-.1.8.4 3.3 1.4 6.5.5.1 0 .2-.2.1-.3-.3-.5-1.3-1.8-4.1-1.7-.3 0-.4-.4-.1-.5 1.8-.9 3.7-1.8 5.7-2 .6-.1.9.7.5 1.1-.4.4-.6.8-.7 1.3.1.2.2.4.4.6.8.6 1.7-.6 3.3.4.9.7 2 .9 2.6 1zm7.5 5.3c.2-.1 0-.4-.2-.3-1.5.5-4.8 1.2-7.2-.3-2.5 1.6-5.7.8-7.2.3-.2-.1-.3.2-.2.3.8.6 1.9 1.1 3.2 1.4 1.3.3 2.8.6 4.2.6 2.9 0 5.9-.8 7.4-2z"/>
    <path fill="#282828" d="M87.3 58.1c-.2 2.1.1 3.8.4 4.9.1.2-.2.3-.3.1-1.2-1.8-1.8-4.3-2-5.1 0-.1-.2-.2-.3-.1-1.6.9-3.3 1.3-5.2 1.4-.2 0-.2-.2-.1-.3 1-.3 1.9-.7 2.8-1.2.2-.1.2-.5-.1-.5-2.6-.1-6.4-.2-7.5-.3-.1 0-.1-.1 0-.2 1.5-.6 4.1-1 4.8-1.1.1 0 .2-.2.1-.3-.1-.1-.5-.4-1.1-.4-1.2-.1-3.7.2-3.6.2.3-.2.7-.4 1.1-.6.7-.5 1.4-1 2.2-1.5.7-.5 1.5-.9 2.3-1.1h.5c2.1-.1 3.6 1.3 4.3 2.1.1.2.4 0 .3-.2-.8-4.7-3.7-5.5-6-4.3-1.4.7-3.4 2.4-4.5 3.3-.2.1-.4 0-.3-.2.8-1.5 2.7-4.7 3.7-5.4 2.1-1.5 3.4-1 4.6-.8 4.1.6 4.8 7.3 4.8 7.9v.1c-.2.5-.3.9-.4 1.3-.1.4-.2.7-.2 1.1-.3.5-.3.9-.3 1.2z"/>
    <path fill="#fff" d="M98.5 72.4c.2-.1 0-.4-.2-.3-1.5.5-4.8 1.2-7.2-.3-2.5 1.6-5.7.8-7.2.3-.2-.1-.3.2-.2.3.8.6 1.9 1.1 3.2 1.4 1.3.3 2.8.6 4.2.6 2.9 0 5.9-.8 7.4-2z"/>
    <path fill="#282828" d="M110.2 121.1c0-.8-.6-1.4-1.4-1.4h-.2c.3-.2.7-.2 1.1-.2 1.4 0 2.6 1.2 2.6 2.6 0 1.4-1.2 2.6-2.6 2.6-1.4 0-2.6-1.2-2.6-2.6 0-.5.2-1 .4-1.4 0 .1-.1.2-.1.4 0 .8.6 1.4 1.4 1.4.7 0 1.4-.6 1.4-1.4zM107.4 137.7c-1.4 0-2.6-1.2-2.6-2.6 0-.4.1-.8.3-1.1v.2c0 .8.6 1.4 1.4 1.4.8 0 1.4-.6 1.4-1.4 0-.8-.6-1.4-1.4-1.4h-.2c.4-.2.8-.3 1.2-.3 1.4 0 2.6 1.2 2.6 2.6-.1 1.4-1.2 2.6-2.7 2.6zM105.2 151.9c-1.4 0-2.6-1.2-2.6-2.6 0-.4.1-.7.2-1.1v.2c0 .8.6 1.4 1.4 1.4.8 0 1.4-.6 1.4-1.4 0-.8-.6-1.4-1.4-1.4-.2 0-.3 0-.5.1.4-.3 1-.5 1.6-.5 1.4 0 2.6 1.2 2.6 2.6-.1 1.5-1.3 2.7-2.7 2.7z"/>
    <path fill="#D39A72" d="M68.7 65.7c-2.7-2.8 0-4-.1-5.6-.1-1.6-2.2-4.2-2.8-5-.1-.1 0-.1 0-.2-.7 1 .6 8.7 2.9 10.8zM66 54.8l.6.2c-.2-.1-.4-.2-.6-.2zM114.3 64.7l.6-1c.2-.4 1.1-3.1 1.6-5.4.5-2.3 0-3.4 0-3.5-.6.9-2.8 3.7-2.8 5.3-.2 1.4 1.8 2.5.6 4.6z"/>
    <path fill="#B4B7B9" d="M132.8 133.8c.1 0 .3.1.4.1 2.1-7.8 5.9-15.1 7.8-17.8-3.1 3.1-8.2 11.1-17.8 24.2l8.4-6.3c.4-.2.8-.3 1.2-.2zM79.8 116.7c-2.3.8-5 1.3-7.5 1.5-1.1 1.1-10.2 11.1 2.6 5.4 13.5-6 16.1-15.2 16.1-15.2-2.8 3.8-6.6 6.7-11.2 8.3z"/>
    <path fill="#B4B7B9" d="M106.3 121.7s-.4-2.3 2.2-3c1.1-.3.4-1.6-.2-2.4h-.1c-1.4 0-4.3-.2-7.6-1.3-4.2-1.4-7.4-3.8-9.5-6.7l-.2-.1c.1.1 1.5 12.4 15.4 13.5zM42 116.8c-.2-.5-.5-.8-.6-1.1.2.3.4.7.6 1.1zm27.8 33.3c-7.6-.5-11.6-3.6-16.4-12.9-4.8-9.3-8.7-15.6-11.4-20.5 2.4 4.5 7.8 18 8 25.5.4.1 1.5.1 2.7 1.4 0 .1.1.1.1.2s.1.1.1.2.1.1.1.2.1.1.1.2v.1c0 .1.1.1.1.2v.1c0 .1 0 .1.1.2 0 .1 0 .1.1.1 0 0 0 .1.1.1 0 .1.1.2.1.3 0 .1.1.2.1.3 0 .1.1.2.1.3.1.3.2.5.2.8.5 2 .8 5.1.5 8.4-.2 2.3 2.2 3.9 4.2 2.9.3-.1.6-.3.9-.4.1 0 .2-.1.3-.1.3-.1.6-.3.9-.4.3-.1.7-.3 1-.4.3-.1.7-.3 1.1-.4 2.3-.8 4.9-1.3 8.3-1.6.2 0 17.7.2 27.2.7 3.5.2 5.9-.2 8-.6 2-.4 3.7-1.8 3.9-3.8.1-.6.2-1.1.2-1.6-1.6 5.3-11.6 2.4-40.7.5z"/>
    <path fill="#D39A72" d="M146.7 178.8h-.2.2zm14.5 1.8c-2.7-10.8-11.9-16.3-16.1-18.6-1.6-.9-6.9-3.8-15.1-5.6 5.6 2 13.6 5.6 18.6 13.3 4.8 7.4-.7 9.1-2 9.2 14.4-1.2 14 3.7 15.2 5.7 0-1.4-.3-2.8-.6-4z"/>
    <path fill="#B4B7B9" d="M50.9 162.1s-7.8-1.3-19.6 2.4c-6.2 2-8.9 5.1-11.3 5.6-3.1.7-4.6-.1-5.6-3.2v.8c.2 6.1 2.1 9.3 3.7 10.3l.1-.1c1.1-1.3 2.4-2.8 4-4.3 4.8-4.5 12.7-10.1 23.5-11.4 1.7-.1 3.4-.2 5.2-.1zM163 172.4c1.6-1.1 3.4-4.2 3.9-10 0-.3 0-.5.1-.8-1 3.1-2.6 3.7-5.6 3-2.4-.6-4.9-3.8-11.1-6-4.4-1.6-8.3-2.4-11.4-2.8l-.1.1c1.6.5 3.2 1.1 4.8 1.8 9.9 4 16.4 8.7 19.4 14.7zM122.3 39.9c.1 0 .1.1 0 .1-2.1.4-4.2.2-5.8-1-.1 0-.1 0-.1.1l-.1 7.1s0 .1.1.1c3.1-.2 5.3-1.3 6.2-2.4 1.9-2.3-.3-4-.3-4zm-61.7-18c3.3 3.4 7.8 5.7 12.5 6.8 7.2 1.6 6.3.1 6-.1-.6-.4-8.1-7.6-8.4-15.2-.7 14.9-8.8 8.9-10.1 8.5zm-.3-.1c4.4 12.6-1.5 8.5-2.8 8.2 3.1 2.9 8.3 3.2 11.8 2.4 1.5-.4-6.1-2.6-9-10.6zm45.3 5.2c-9.7-1.3-9.1-12.1-15.1-8.3-11.2 7.1-19.8-5.3-19.8-5.3s3 6.8 8.2 10.2c7.7 5 15.3 5.3 13.3-2.9 0-.1.1-.1.1 0 1.8 3.4 7 7.1 12.3 8.9 4 1.4 4.5.7 8.8 3 1.2.6 2.3 1.6 3.3 2.6-2.1-3-.5-6.8-11.1-8.2zm-41.4 9c-2.9-1-5.7-3.6-7.1-6.1 0 0 3.5 4.8 2.3 6.5-.9 1.1 5.8 5.6 6.7 5.8 0 0 .1 0 .1-.1 0-.6 0-5.4-2-6.1z"/>
    <path fill="#D39A72" d="M94.1 185.9c-.1.1-.1.2-.2.3.1-.2.1-.3.2-.3zm-.3-1.7s-3.3-3-8.6-6.6l-.4-.1s6.6 4.2-2.2 6.2c-17.4 4-35.3.6-41.3.3-5.9-.3-11 1.1-12.4.9-3.9-.6-2.2-5.7 2.3-8.8 5-3.4 21.4-2.7 21.4-2.7s-11.5-1.3-9.9-4.8c1.1-2.5 6.5-3.2 9.5-3.3-2-.1-4 0-6 .2-9.4 1.1-16.6 6.5-21.3 11.6-2.3 2.5-5 7.1-3.6 10.3.1.3.3.6.4.8 1.5 2.2 6.1 1.3 8.6 1.2.3 0 .7.1 1 .3 0 0 12 5.4 28.6 4.4 16.4-1.1 29.7-4.9 34.2-8.1.4-.7.3-1.4-.3-1.8zM154.4 191c-.2 0-.4.1-.6.2.4-.1.6-.2.6-.2zm-33.3-4.7c-3.2-.9-7.3-2.5-10.4-4.1-3.3-1.7-2.2-2.9.8-2.8 16.3.9 34.4-.6 34.4-.6s-28.8-1.1-43.9-5.9c-7.7-2.4-16-4.9-22.3-6.7-7.2-2.7-14.9-4.4-23.5-3.9 17.3 1.9 33.2 12.3 43.5 18.9.9.6 1.8 1.2 2.8 1.8 5.9 3.3 20.7 8.7 29 10 9.8 1.5 16.9.2 22.3-1.8 0 0-.1 0-.1.1.1-.1.1-.1.2-.1-4.8 0-16.3-.1-32.8-4.9z"/>
    <path fill="#B4B7B9" d="M72.7 34.1c-.9.3-1.7.6-2.4.9l.1 7.2 2.3-8.1zM112 35c-.7-.3-1.4-.6-2.2-.8l2.3 8.3-.1-7.5zM21.3 146.1c1.2-.5 2.4-.9 3.6-1.3.6-16.3 9.6-31.1 9.6-31.1-9.7 9.3-12.6 28.2-13.2 32.4zM148.7 114.9s6.4 12.1 7.7 26.7c1.2.4 2.4 1 3.6 1.6-1.2-7-4.8-21.1-11.3-28.3zM112.8 153.7c7.2-30.6 11.2-39.8 11.2-39.8l-3.5-1.3c-1.8 6-5.8 20.7-8.2 40.5l.5.6z"/>
    <path fill="#FAC717" d="M81.6 96.4c-1.3-.3-2.5-.7-3.6-1.2l3.6 1.2zm38.7-13.5s-.5 7-4.9 4.3-3.1-10.2.7-10.8c1.2-.2.1-1.7-2.1-3.6-.7 3.6-2.3 7.4-4.2 9.8-.3.4-.6.7-.9 1.1h.2c1.1 0 2.1.4 2.9 1.1l.2.2c.7.7 1.1 1.6 1.1 2.8 0 0 0 .1.1.1 1.6.4 3.2.8 3.9 2.4.4.9 3.3 2 8 4.1-.3-3.1-1.3-8-5-11.5zm-51.1 4.8c.1-1.1.4-2.1 1.1-2.8l.2-.2c.7-.7 1.6-1 2.6-1.1.1 0 .1-.1.1-.1-.3-.3-.5-.6-.8-.9-2.1-2.7-3.8-6.9-4.4-10.9-2.8 2.4-4.7 4.4-3.3 4.7 3.8.6 5.1 8.1.7 10.8-4.4 2.7-5-4.3-5-4.3-4 3.8-4.9 9.4-5.1 12.1 1-.4 1.8-.8 2.1-.9 4.5-1.9 7.3-3 7.8-3.9.8-1.6 2.4-2.1 4-2.5 0 .1 0 0 0 0zm10.6 16.5c.5-.1.8-.2 1.2-.4-.4.2-.7.2-1.2.4zM71.4 48.4s.1 15 .8 19.1c1.1 6.3 3.5 14 4.6 15.5 0 0-6.6-4.7-6.3-17.9.3-11.7.9-16.7.9-16.7zM74.9 87.6s-2-.2-1.8 1.4c.5 3.7 2.1 4.2.5 3.8-1.6-.3-5.9-2.8-5.3.9 0 0-1.3-.9-.9-2.1.4-1.2 3.2-1.2 4.1-1.8.9-.6-.2-2 .8-3.1 1.3-1.4 2.3.6 2.6.9zM110.7 48.4s-.1 15-.8 19.1c-1.1 6.3-3.5 14-4.6 15.5 0 0 6.6-4.7 6.3-17.9-.2-11.7-.9-16.7-.9-16.7zM107.7 87.6s2-.1 1.8 1.5c-.5 3.8-2 4.2-.5 3.9 1.6-.3 5.7-2.8 5 1 0 0 1.3-1 .9-2.2-.4-1.2-3.1-1.2-4-1.8-.9-.6.1-2.1-.7-3.2-1.2-1.5-2.2.5-2.5.8z"/>
    <path fill="#D29B67" d="M114.4 64.5s0-.1 0 0c0 0 0 .1-.1.1l.1-.1zM91.2 44.9c0-.1 0-.1 0 0zm5.3.1c1.3-.7 2.6-.9 3.7-.9-1.1.1-2.4.3-3.7.9zM115 57c.3-.4.5-.8.8-1.2.1-.1.1-.2.2-.3.2-.3.4-.6.5-.7.1-.1 0-.3-.2-.3.1 0 .2.2.2.3-.6.9-2.8 3.7-2.8 5.3v.1-.1c0-.2.1-.4.1-.7.1-.2.1-.4.2-.5 0-.1 0-.1.1-.2.1-.2.2-.3.2-.5.1-.1.1-.2.2-.3.1-.1.2-.3.2-.4 0-.1.2-.3.2-.4l.1-.1zm-.3 6.6v.1-.1zm0-.2v-.2.2zm-.1-.5v.1-.1zm-.1-.3s0 .1.1.2c0-.1 0-.2-.1-.2zm0-.2c0-.1-.1-.1-.1-.2 0 .1.1.2.1.2zm-51-12.7l1.8.1c.2 0 .2.2.1.3l-3 2.6c-.2.1 0 .4.2.3-.2.1-.3-.2-.2-.3l3-2.6c.1-.1.1-.3-.1-.3l-1.8-.1c-.1 0-.1-.1 0-.2l4.1-1.9-4.1 1.9c-.1 0-.1.2 0 .2zm9.4-2.1c.1 0 .1 0 0 0 0 0-.1.1-.2.1.1 0 .2 0 .2-.1zM153 99c-.2-1.6-1.8-2.7-3.4-2.4l-13 2.4c.6.3 1.2.5 1.7.7.9.4 1.6.7 2.1.9h.1c1.4.6 1.9.9 2.1 1 .2.1.6.2.9.3 1.9.6 3.4 1.1 4.1 2.2l.3.6c.2.4.4.9.7 1.1.7.4 2.7 2.7 5 6.2.1-1.1.1-2.2.1-3.3-.1-3.2-.3-6.5-.7-9.7zM73.4 47.4c-.1 0-.2.1-.2.1.1 0 .1 0 .2-.1zm-11 19.2c.5.4 1.1.7 1.8.7-1.3-2.8-3-8.7-2.8-10.6 0-.3.1-.5.1-.8v-.1c-.8-.3-1.5-1-1.9-1.8-.5-1.2-.1-2.5.8-3.4v-.1c-.2-.6-.2-1.3.1-2 .3-.7.9-1.2 1.6-1.6l3.5-1.7h-.2c-.1 0-.3-.1-.6-.2-4.6 2.3-9 5.1-12.9 8.5-1.3 1.1-1.3 3.2 0 4.3l10.5 8.8zM91 44.9c0-.1 0-.1 0 0zm-3.8 0h-.1.1zm2.2 0s-.1 0 0 0c-.1 0 0 0 0 0zm-14.9 2.2h-.2.2zm12.4-2.2c-.6 0-1.1.1-1.8.1.7 0 1.2-.1 1.8-.1zm-11.1 1.8c2.4-1.7 4.4-2.5 6.2-2.4-1.8-.1-3.8.7-6.2 2.4zm9.2-1.6s.1 0 0 0zM68.9 55.7l-2.6-.8H66l2.9.8zm50.7-2.7l-4.2-1.3 4.2 1.3zm-1.8 14.7c.4-.1.9-.3 1.2-.6l10.5-8.8c1.3-1.1 1.4-3.2.1-4.3-2.1-1.8-4.3-3.5-6.6-5-.3.1-.6.3-.9.4 0 0-.1 0 0 .1 0 .3 0 .5-.1.8 0 .1 0 .2-.1.3v.1c.9.9 1.2 2.2.8 3.4-.3.9-1 1.5-1.9 1.8 0 0-.1 0-.1.1 0 .3.1.5.1.8.2 1.9-1.7 8.4-3 10.9zM50.5 82.9l-13.3-6c-1.4-.7-3.1 0-3.8 1.4-1.6 3.8-3 7.7-4 11.8-.4 1.6.6 3.2 2.2 3.5l14.8 2.8c1.5.3 3-.7 3.3-2.2.5-2.7 1.3-5.3 2.2-7.8.6-1.3 0-2.9-1.4-3.5zM27.8 98.7c-.4 3.3-.7 6.7-.7 10.1 0 1.8.1 3.6.2 5.3 3.2-4.9 5.9-7.9 6.6-8.2.3-.2.5-.7.7-1.1l.3-.6c.6-1.1 2.2-1.6 4.1-2.2.3-.1.7-.2.9-.3.1-.1 2.7-1.2 5.9-2.6l-14.7-2.8c-1.5-.3-3.1.8-3.3 2.4zM60 68.2l-10.5-8.9c-1.2-1-2.9-.9-3.9.3-3 3.3-5.7 7-8 10.9-.9 1.4-.3 3.3 1.3 4l13 5.9c1.3.6 2.9.1 3.6-1.2 1.5-2.5 3.1-4.9 4.9-7.1.9-1.1.8-2.9-.4-3.9zm70.4 15.2c-1.4.6-2 2.2-1.5 3.6.9 2.4 1.6 4.9 2.1 7.5.3 1.5 1.8 2.6 3.3 2.3l14.8-2.8c1.6-.3 2.6-1.9 2.2-3.5-1-4-2.3-7.9-3.9-11.6-.6-1.5-2.3-2.1-3.8-1.5l-13.2 6zm-9.5-10.6c1.8 2.1 3.3 4.4 4.7 6.9.7 1.3 2.3 1.8 3.6 1.2l13-5.9c1.5-.7 2.1-2.6 1.3-4-2.3-3.9-4.9-7.5-7.8-10.8-1-1.2-2.8-1.3-4-.3l-10.5 8.9c-1.1 1-1.3 2.8-.3 4zm-7.1-11.9s-.1 0 0 0v0c0 .1 0 .1 0 0zm-.3 4.8c.2-.2.4-.4.5-.6-.1.1-.3.3-.5.6zm-.2-10c-.1 0-.2-.1-.2-.2l.8-5.3c0-.1.6-2.7.8-2.6-.2-.1-.7 2.5-.8 2.6l-.8 5.3c0 .1.1.3.2.2zM91 44.9h-1.1H91zM70.7 61.2c0-1 .1-2 .1-2.9.2-4.4.4-8 .4-8.1 0 0 0-.4.1-.9 0-.2 0-.4.1-.6 0-.2 0-.3.1-.3.2-.1.3-.2.5-.2-.2.1-.3.2-.5.2-.1 0-.2 1.8-.2 1.8s-.4 7-.6 13.2v-2.2zm43-.5s0 .1.1.1l-.1-.1zM65 54.6c-.5.8-.6 1.7-.7 2.4-.1 1.3 1.5 6.9 2.5 9-1-2.2-2.6-7.8-2.5-9 .1-.8.2-1.7.7-2.4.4-.7 1-1.3 2-1.5h.1l-.1-1.3c0-.1-.1-.2-.2-.2.1 0 .2 0 .2.2l.1 1.2H67c-1 .3-1.6.9-2 1.6z"/>
    <path fill="#FAC717" d="M50.5 82.9l-.5-.2c-1.9 4.3-3.2 8.9-3.8 13.7l.3.1c1.5.3 3-.7 3.3-2.2.5-2.7 1.3-5.3 2.2-7.8.5-1.4-.1-3-1.5-3.6zm.7-2.7l.5.2c1.3.6 2.9.1 3.6-1.2 1.5-2.5 3.1-4.9 4.9-7.1 1-1.2.9-3-.3-4-3.4 3.6-6.3 7.6-8.7 12.1zm78.6.5c-2.2-4.4-5.1-8.4-8.5-11.9-1.2 1-1.3 2.8-.3 4 1.8 2.1 3.3 4.4 4.7 6.9.7 1.3 2.3 1.8 3.6 1.2l.5-.2zm1.1 2.5l-.5.2c-1.4.6-2 2.2-1.5 3.6.9 2.4 1.6 4.9 2.1 7.5.3 1.5 1.8 2.6 3.3 2.3l.2-.1c-.5-4.8-1.8-9.3-3.6-13.5z"/>
</svg>
