<svg xmlns="http://www.w3.org/2000/svg" width="181" height="100" fill="none" viewBox="0 0 181 100">
    <path fill="#F9F9F9" d="M158.2 99.4c-.2-.1-.4-.1-.6-.2-.2-.1-.5-.2-.8-.3-.3-.1-.6-.3-1-.5-.3-.2-.7-.4-1-.5-.3-.1-.7-.4-1-.5-.3-.1-.6-.3-.8-.4-.3-.1-.5-.2-.7-.3-.2-.1-.4-.2-.6-.2-.4-.1-.8-.3-1.2-.4-2.4-.8-4.8-1.5-7.2-2.2-.8-.2-1.6-.5-2.5-.7-.4-.1-.9-.3-1.4-.4-.5-.1-1-.3-1.6-.5-.6-.2-1.3-.4-2-.6-.8-.2-1.5-.4-2.2-.6-.7-.2-1.4-.3-2-.4-.6-.1-1.2-.2-1.7-.3-.5-.1-1-.1-1.4-.2-.4 0-.9-.1-1.3-.2-.8-.1-1.7-.2-2.5-.4-.8-.1-1.6-.3-2.4-.4-.8-.1-1.5-.3-2.3-.4l-2.4-.3c-.8-.1-1.7-.2-2.5-.4-.8-.1-1.7-.3-2.4-.4-.8-.1-1.5-.3-2.3-.4L108 87c-.9-.1-1.7-.1-2.5-.2-.7 0-1.3-.1-1.8-.1s-1 0-1.4-.1H85.4c-.9 0-1.7.1-2.5.1s-1.6.1-2.4.1H75.8c-.7 0-1.4.1-2.1.1-.6 0-1.2.1-1.7.2-.4.1-.9.1-1.3.2l-1.2.3c-.5.1-1 .1-1.6.2-.6.1-1.3.2-2.1.3-.8.1-1.5.2-2.3.3-1.5.2-3.1.5-4.6.7-.8.1-1.5.3-2.3.4-.8.1-1.6.3-2.5.5-.5.1-1 .2-1.6.3-.6.1-1.2.2-1.9.3-.7.1-1.3.2-1.9.3-.6.1-1 .2-1.4.3-.7.1-1.2.3-1.6.4-.4.1-.8.2-1.3.4-.5.1-1 .3-1.6.5-.7.2-1.4.4-2.2.6-.8.2-1.5.4-2.3.6-2.2.6-4.5 1.3-6.7 2-.4.1-.8.3-1.2.4-.2.1-.4.1-.6.2-.2.1-.4.1-.6.2-.2.1-.4.2-.7.3-.3.1-.5.2-.7.3-.2.1-.5.2-.8.4-.3.1-.6.3-.9.4-.3.1-.6.3-.8.4-.2.1-.5.3-.8.4-.2.1-.5.2-.7.3-.2.1-.4.2-.6.2 0-.4.1-.8.2-1.2.1-.2.1-.5.2-.7.1-.2.2-.5.2-.7.1-.3.2-.5.3-.7.1-.2.2-.5.2-.7.1-.2.1-.5.2-.7 0-.2.1-.4.1-.6.1-.4.1-.8.1-1.1 0-.4 0-.7.1-1.1 0-.3 0-.6.1-.9 0-.3 0-.6.1-.9 0-.3.1-.6.1-.9 0-.3.1-.7.1-1 0-.3.1-.8.2-1.2 0-.2.1-.4.1-.6 0-.2.1-.4.1-.6.1-.4.2-.8.2-1.2.1-.4.1-.7.1-1 0-.3 0-.6.1-.8.1-.2 0-.5 0-.7-.2-.2-.5-.3-.7-.4-.3-.1-.5-.3-.8-.4-.3-.1-.5-.2-.8-.3-.3-.1-.5-.3-.8-.4-.2-.2-.5-.3-.7-.5-.2-.2-.4-.4-.7-.6-.3-.2-.4-.4-.6-.6-.2-.2-.4-.4-.7-.6-.3-.2-.5-.5-.8-.7l-.8-.8-.4-.4c-.2-.1-.3-.3-.5-.4-.2-.1-.4-.3-.6-.4-.2-.1-.4-.3-.7-.4-.3-.1-.5-.3-.7-.4-.2-.1-.5-.3-.7-.4-.2-.1-.4-.3-.6-.4-.2-.1-.4-.2-.5-.3-.3-.2-.6-.4-.8-.6.3-.1.6-.1.9-.2.3-.1.6-.1.9-.2.3-.1.6-.1 1-.2.3-.1.6-.1.9-.2.3-.1.6-.1.8-.2.3-.1.5-.1.8-.2.2 0 .5-.1.7-.2.2 0 .4-.1.6-.2.4-.1.8-.3 1.3-.4.8-.3 1.6-.5 2.5-.8.8-.3 1.6-.5 2.5-.8.8-.3 1.7-.5 2.6-.8.5-.1 1-.3 1.5-.4.6-.1 1.2-.3 1.9-.4.7-.1 1.5-.3 2.3-.5.8-.2 1.6-.4 2.3-.5.7-.2 1.4-.3 2-.5.6-.2 1.1-.3 1.6-.5s1-.3 1.4-.4c.5-.1.9-.3 1.3-.4.9-.2 1.7-.4 2.5-.6.7-.1 1.3-.3 1.8-.4.5-.1 1-.2 1.4-.3.4-.1.8-.1 1.2-.2.5-.1 1-.2 1.6-.3.7-.1 1.5-.3 2.3-.4.8-.1 1.7-.3 2.6-.4.9-.1 1.7-.3 2.6-.4.9-.1 1.7-.2 2.6-.4.5-.1.9-.1 1.5-.2.5-.1 1.1-.1 1.8-.2s1.4-.1 2.1-.2c.7-.1 1.5-.1 2-.2 1.1-.1 1.9-.2 2.4-.2.6-.1 1-.1 1.5-.2s1.1-.1 1.8-.2 1.6-.1 2.4-.2c.9-.1 1.7-.1 2.6-.1 1.7-.1 3.4-.1 5-.2.8 0 1.7 0 2.5-.1h2c.5 0 1 .1 1.4.1.4 0 .9.1 1.3.1.5 0 1.1.1 2.1.1H100.1c.6 0 1.2.1 1.8.1.5 0 1 .1 1.5.1s.9.1 1.4.1c.8.1 1.7.1 2.5.2s1.6.1 2.4.2c.4 0 .9.1 1.3.1.5 0 1 .1 1.6.1.6.1 1.2.1 1.9.2s1.4.2 2.2.3c.7.1 1.5.3 2.2.4.7.1 1.3.3 1.9.4.6.1 1.1.2 1.5.3.4.1.9.1 1.3.2.8.1 1.6.3 2.3.4.6.1 1.2.1 1.7.2.5 0 .9.1 1.3.1s.8.1 1.2.2c.4.1.9.2 1.4.3.6.1 1.2.2 2 .4s1.6.3 2.4.5c.8.2 1.6.3 2.4.5.8.2 1.6.4 2.3.5.7.2 1.4.3 2 .5.6.1 1.1.3 1.6.5s1.2.4 2 .6c.4.1.9.3 1.4.4.5.1 1.1.3 1.6.4.6.1 1.1.3 1.5.4.4.1.9.2 1.3.4.8.2 1.6.5 2.4.7.8.2 1.5.5 2.3.7.8.2 1.5.5 2.3.8.4.1.8.3 1.3.4.2.1.4.1.7.2.2.1.5.1.7.2.3.1.5.1.8.2.3.1.6.1.9.2.3.1.6.1.9.2.3.1.6.1.9.2.3.1.6.1.8.2.3.1.5.1.7.2-.2.2-.4.4-.6.7-.2.3-.6.5-1 .7-.2.1-.4.3-.6.4-.2.1-.4.3-.7.4-.2.1-.5.3-.7.4-.2.1-.4.3-.6.4-.2.1-.4.3-.6.4-.2.1-.3.3-.5.4-.3.3-.6.5-.8.7-.3.2-.5.5-.8.7l-.6.6-.6.6c-.2.2-.4.4-.7.6-.2.2-.5.4-.8.6l-.9.6c-.3.2-.6.4-.8.6-.3.2-.5.4-.8.6l-.6.6c.1.4.1.7.2 1.1.1.4.2.7.3 1.1.1.4.2.7.3 1.1.1.4.2.7.3 1.1.1.4.1.7.1 1.1 0 .4.1.7.1 1.1 0 .4.1.8.2 1.2.1.4.1.8.2 1.2.1.4.1.8.1 1.1 0 .4.1.7.2 1 .1.3.1.7.2 1 .1.3.2.7.4 1.1.2.4.3.8.5 1.1.1.4.3.8.4 1.1.6.3.6.7.7 1z"/>
    <path fill="#fff" d="M39.1 9.3V9c-.1.1-.1.2-.1.3h.1zM17.6 12.7h.2v-.6s-.1 0-.1.1c-.2.2-.3.4-.3.6.1 0 .1-.1.2-.1z"/>
    <path fill="#fff" d="M39.1 7.3c0-7.5-10-6.6-12.3-6.6h-3.3s0 .1-.1.1h-.1l.1-.1h-5.3c0 .2-.1.5-.5.3-.3-.2-.7 0-.9.3-.1.1-.1.2-.2.3 0-.1-.1-.1-.1-.2s.1-.1.1-.2c.3-.2.5-.4.7-.5h-6.5s0 .1.1.1l-.1.1h-.1V.8H8.1s0 .1.1.1c-.3.1-.5.3-.7.4 0 0-.1-.1-.1-.2.2-.1.4-.2.6-.4H5.1c-.5 0-.9.4-.9.9v1.9s.1 0 .1-.1c.1.1.1.1.2.1-.1.2-.2.2-.3.3v1.9c.1.1.2.1.3.2-.2.1-.3.1-.3.1v1.8c.2.1.4.2.4.5-.2.1-.3 0-.5 0v2.3l.1.1-.1.1c0 .2.1.3.1.5v-.2c.3-.4.3-.8 0-1.1 0 0 .1-.2.1-.4.1.1.2.1.3.2.2.1.4.2.5.4-.1-.3-.2-.5-.3-.7 0-.2.1-.3.1-.4 0-.1 0-.1.1-.1V9.3c.3.1.6.7.6 1 0 .1.1.2.1.2v.5c-.1-.1-.2-.1-.3-.2 0 .2-.3.4-.4.6-.1.1-.1.2-.2.3h1.1c-.1-.1-.3-.2-.5-.3.3-.1.4-.2.5-.2.2.1.5.1.6.5.4.1.7.4.7.8v3c.2-.1.3-.2.5-.3.1.1.3.3.2.3-.1.1-.2.3-.4.3-.1 0-.3-.1-.4-.2v2.1c.1.1.1.2.2.4-.1 0-.1-.1-.2-.1v1.6c.1 0 .1-.1.2-.1s.2.1.3.2c-.1.2-.3.4-.4.5 0 0 0-.1-.1-.1v6.5c.1 0 .1.1.2.2 0 0-.1.1-.2.3v7.4c.1 0 .1 0 .1.1.1.1.1.2.2.3.1.1.1.3.2.4 0 0-.1.1-.1 0-.1-.1-.3-.1-.5-.1V38h.1c.1 0 .3 0 .4.1.2.3.3.6.5.9 0 0 0 .1-.1.1h-.1c-.1-.1-.2-.3-.3-.4-.1-.2-.2-.3-.4-.3V48c0 .5-.4 1-.9 1.1l-1.2.2c-.5.1-.9.6-.9 1.1v1.3c.1.2.1.4 0 .5v2.1c.1-.1.2-.2.3-.1.1 0 .2.1.3.3l-.2.2-.3-.3v2.9l.1-.1c.1-.2.2-.2.4-.2.4-.1.7-.1 1.2-.2 0 0 .1 0 .2.1-.1.1-.2.1-.2.2-.2.2-.3.5-.5.7-.2.4-.8.6-1.3.5v1.2c0 .2 0 .3.1.4v-.1c.1-.1.2-.2.3-.2.3 0 .5.1.8.1.1 0 .1.1.2.2v.1l.3-.1c.2.2.2.1.3.1h.1l3.3-.6v-.1c0-.2.1-.3.3-.1.1.1.2.1.3.2l9.8-1.8c.5-.1.9-.6.9-1.1v-2.8c-.1-.1-.2-.2-.2-.3 0-.1.2-.2.2-.2v-.3l-.1-.1h.1v-1.6c-.3 0-.4-.1-.3-.3-.1 0-.1-.1-.2-.1l.1-.1h.1v-.1c.1-.1.1-.3.2-.4v-2.3c0-.2-.1-.4-.2-.6v.1l-.3-.3c-.1 0-.2-.1-.4 0l-1.2.2c-.4.1-.7-.2-.9-.5-.7-.1-.8 0-1.3.8h-.3c-.1 0-.1-.1-.3-.2.3-.3.5-.7.8-.9.3-.2.6-.1 1 .2v-7c0-.5.4-1 .9-1l1.3-.1h.2l.9-.1v-.1s.1-.1.2-.1.1.1.2.2l7.4-.8c-.1-.2-.3-.4-.4-.6 0 0 .1-.1.1-.2.2.2.3.4.6.7h-.1l2.2-.2c.5 0 1.2-.4 1.6-.7l1.8-1.6c-.1 0-.1-.1-.2-.1.1 0 .2-.1.3-.1l3.6-3.3c.4-.3.7-1 .7-1.5v-4.3h-.3c0-.1 0-.3.1-.3s.2-.1.3-.1V14.3c-.1 0-.2-.1-.3-.1-.1 0-.2-.1-.3-.2.1-.1.2-.1.2-.1h.1c.1 0 .2.1.3.1v-3.9l-.1.1v1c0-.1-.1-.2-.1-.3v-.4-.2c0-.1-.1-.1-.1-.2-.1 0-.1-.1-.2-.1-.1-.1-.1-.2-.1-.3h.2v-.2s-.1 0-.1-.1.1-.1.1-.1l.1.1c.1-.3.2-.4.3-.4v-.1h.1V7.8l-.1-.1.1-.1v-.3zm-6-3.3s.2 0 .4.2c-.1 0-.2.1-.2.1-.1-.1-.2-.1-.2-.1-.1-.1 0-.2 0-.2zm-15 7.4c.2-.1.3-.2.5-.2h.1s.1 0 .2-.1c.1 0 .1.1.2.1h1.4V11c.3-.1.5-.1.5.2l2.3-.1h-.4c.1-.1.2-.2.3-.2h.2c.1 0 .2.1.4.2v.1l3.5-.1c.5 0 .9.4.9.9v4.7s.1 0 .1.1c-.1 0-.1.1-.2.2v2h.4c.2 0 .3.1.5.1.1.1.1.3.1.4 0 .1-.2.1-.3.1 0 0-.1 0-.2-.1s-.3-.2-.4-.2v6.2c.4 0 .8 0 1.1.6-.4-.1-.7-.2-1.1-.3v.5c0 .5-.4.9-.9 1l-4.3.2-4.1.3c.2.2.1.4 0 .9-.5-.3-.6-.4-.3-.9-.5 0-.8-.4-.8-.8v-2.5c0-.1-.1-.1-.1-.2v-.1s0 .1.1.1v-1.5c-.2-.2-.4-.4-.6-.5 0 0-.1 0-.2-.1-.2-.1-.3-.2-.4-.3.1-.1.2-.2.3-.2.1 0 .2.2.3.3-.1 0-.1.1-.2.2h.1c.1.1.3.1.4.2.1 0 .1.1.2.1v-2.8h-.1v.1c-.7 0-.8-.2-.5-.8l.1-.1c-.5-.2-.7-1.2-.4-1.6.2-.1.5 0 .8.2h.1v-2.3s-.1-.1-.2 0c-.1 0-.2.1-.2.2 0 0 0 .1.1.1H17c-.1 0-.1-.1-.3-.2l-.1-.1h.2l.2-.2c.2-.1.3 0 .5-.1.1 0 .1 0 .2-.1v-.6c-.2-.1-.5-.1-.7-.3-.3-.2-.3-.3-.7-.1 0 .2-.1.4 0 .6 0 0 0-.1.1-.1l.2.2-.1.1h-.1l.1.1v.3h-.3l-.6-.6c-.1-.1-.1-.2-.1-.3 0 0 .1-.1.2-.1.2 0 .5 0 .6-.1 0-.3 0-.5-.3-.6-.2 0-.2-.2-.2-.3-.1-.3 0-.3.3-.3s.3 0 .3-.3v-.2c0-.1.1-.1.2-.1 0 0 .1 0 .1.1.3-.7.6-.8 1.4-.8zm20.4-4c-.3-.1-.5-.1-.7 0 .1 0 .2.1.3.2v.3c-.1 0-.2.1-.4 0-.1-.1-.3-.1-.3-.2l-.2.2c-.1.1-.2 0-.3.1h-.3c0-.1 0-.2.1-.3l.3-.3v-.3c0-.1-.1-.2-.2-.3h.1c0-.1.1-.2.1-.2.1-.1.2-.1.3-.1 0-.1-.1-.1-.1-.1.1.1.2.1.3.2l-.1.1.1.1c.1 0 .1-.1.2-.1.2.1.3.2.5.3l.1.1c.2.1.4.2.5.3 0 0 0 .1-.1.1.1-.2-.1-.1-.2-.1zM115.4 40.9v-.3c-.1 0-.1 0-.2.1l.2.2zM103.1 5.8v.3c0-.1.1-.1.1-.2l-.1-.1z"/>
    <path fill="#fff" d="M132.4.7h-6.9c-4.4 0-7.8 0-11.9.3v.5s0 .2-.1.4c-.2-.1-.4-.3-.5-.4l-.3-.6h-3.2c0 .1 0 .2-.1.4-.1-.1-.1-.2-.2-.2 0 0-.1.1-.2.1l-.1-.1.1-.1h-3.8c-1.1 0-1.9.9-1.9 1.9v1.2c0 .3.1.6.3.7 0 0 .1.1.1.2v.1c-.2 0-.3 0-.3-.2v.5h.1l.6.6c.1.1.1.3.2.4-.1 0-.2.1-.3.1h-.3c-.1 0-.1 0-.2.1v6.6l.1.1-.1.1v.1c0 .5.4.9.9.9l8.8.1c.5 0 .9-.4.9-.9v-1.3c0-1.1.9-1.9 1.9-1.9h2c.5 0 .7.4.5.8l-3 6.5c.1.2.1.3.3.5.1.1 0 .1-.1.2-.1 0-.2 0-.3.1-.1.1-.2.2-.2 0l-2 4.3-.1.1-.4.8h.1c-.1.5.3.8.4 1.2 0 .1-.1.1-.1.1h-.2c-.2-.2-.3-.4-.5-.6v-.1l-2.3 5h-.1l-1.6 3.4c.1 0 .2.1.3.2-.1.1-.1.1-.2.1s-.1-.1-.2-.2l-1.1 2.3-.3.6c-.1.2-.2.5 0 .8v.2c0 .1-.1.2-.1.3-.1.3-.2.4-.5.1l-4.3 9.5c-.3.6-.5 1.5-.5 2.2V51c0 .5.4.9.9 1l12.7.8h.1l9.6.6c-.1 0-.3-.1-.4-.1 0 0 0-.1-.1-.1 0 0 0 .1.1.1.2 0 .3.1.5.1l2.2.1c.1-.1.2-.3.3-.4 0 0 .1.1.1.2s0 .2-.1.3l3.8.2c.5 0 .9-.3.9-.8v-6.6h-.2c-.2-.1-.1-.2 0-.3 0 0 .1 0 .1.1v-2.4c-.1 0-.1.1-.2.1v-.2c0-.1 0-.2.1-.3-.1 0-.3.1-.4.1 0 0-.1 0-.1-.1 0 0 0-.1.1-.1.2-.1.3-.1.5.1.1 0 .1.1.2.1v-1c-.2-.1-.5-.3-.6-.5 0 0 0-.1-.1-.1 0 0 0 .1.1.1.2-.1.4 0 .6.1v-1.3c0-.5-.4-.9-.8-1 .2.2.4.3.6.4-.3 0-.5.1-.6 0-.1-.1-.2-.1-.3-.2 0 0 0-.1.1-.1h.1v-.1l-3.6-.2-2.9-.2c0 .2.1.3.1.5h-.1c-.1-.1-.2-.3-.3-.5l-.7-.1c-.1.2-.3.4-.4.5l-.2.1c-.1-.1-.1-.2-.1-.2 0-.1.1-.2.1-.2.1-.1.2-.1.3-.2l-1-.1c-.4 0-.8.3-.9.6.1-.1.5.3.5.4 0 .2-.2.4-.4.3 0 0-.1 0-.1-.1v2.1h.1c.1.1.1.2.2.2l.1.1h.3c.4 0 .4.1.4.5 0 .1.1.2.1.2s.1 0 .2-.1c.1-.2.2-.3.4-.2.2.1 0 .3 0 .4v.1c.1.1.3.1.4.2h.1c0-.1.1-.1.1-.1v-1.1c0-.2-.1-.5 0-.5.2-.1.3.1.4.3l.2.1c.5-.2.3.1.3.3v.4c.1 0 .1.1.1.2s-.1.2-.2.3l-.2-.2c-.1 0-.2.1-.3.1l-.1.1c.1.5-.2.9-.5 1.3.1.1.2.2.2.4h-.1c-.2-.1-.2-.2-.2-.4-.7.1-1 0-1.3-.6-.1-.2-.2-.3-.5-.4-.2 0-.3-.1-.3-.4 0-.2 0-.3-.1-.5l-.1.1-.1-.1c0-.1.1-.1.1-.1-.1-.1-.1-.2-.2-.3 0 .1-.1.2-.2.3 0 .1.1.1.1.2v.1c-.3 0-.3.4-.6.4h-.4c-.5.1-.6.5-.3.9l.1.1c.1.1.4.1.4.4-.2 0-.3-.1-.5-.1-.1 0-.2.1-.2.2-.1.1-.1.3-.2.4-.1.1-.3.1-.5.1-.1 0-.3-.1-.4-.2l-.1.1v-.2c-.1 0-.2-.1-.3-.1-.3 0-.6-.2-.8-.3-.1 0-.1-.1-.1-.2H117.4c.2-.1.4-.3.6-.2.1 0 .2.3.3.4.1.1.2.1.3.1h.4c.3.1.4.1.4-.2 0-.3-.1-.4-.6-.4-.1 0-.2 0-.1-.2 0-.1.1-.3.1-.5s-.3-.3-.2-.6l.6.3h.2v-.2c-.1-.1-.1-.2-.2-.3l-2.6-.1c-.1.1-.2.1-.2 0h-.4c-.5 0-.7-.4-.5-.9l.1-.3c-.1 0-.1 0-.2-.1-.3-.2-.5-.2-.7.1h-.2v-.2c.1-.4.1-.7-.3-.8v-.2c.1 0 .3-.1.4-.1.1 0 .2.1.3.2.2-.1.4-.1.5.1 0 .1.1.2.1.3.1.1.2.2.3.1l1.5-3.3v-.1c0-.1.1-.1.1-.2l.4-.9h.1l2.6-5.7H119.8v-.1c.1 0 .3-.1.3-.1h.4l.4-.9c-.2-.1-.5-.2-.6-.5v-.1c0-.1 0-.1.1-.2h.2c0 .3.2.4.4.5l1.4-3c-.2.1-.4 0-.4-.2 0-.1-.1-.2 0-.3.3-.4.3-.9.1-1.4 0-.1.1-.1.1-.2l.1.1.3.3c.1.1.1.2.2.3 0 0 0 .1.1.1 0 0 0-.1-.1-.1-.3.1-.4.2-.4.4 0 .1.1.3.2.4v.1l3.9-8.7c-.1 0-.1-.1-.2-.1 0-.1.1-.2.2-.2 0 0 .1 0 .2.1l.6-1.4c-.1 0-.2-.1-.2-.1s0-.1-.1-.2c-.1-.3-.1-.7-.2-1v-.3c0-.1.3-.1.3-.1.2.3.3.6.4.8 0 .2 0 .4-.1.6l.5-1.1c-.1-.1-.1-.1-.1-.3V14c.1-.2.2-.4.4-.6.1 0 .1.1.1.1l.3-.8c0 .1-.1.1-.1.2-.1-.1-.2-.3-.2-.4 0-.1.1-.2.2-.2.2 0 .2-.1.2-.3 0-.1.1-.3.2-.4.1-.2.2-.2.4-.1l.7-1.5h-.2c-.1.1-.3.2-.4.2h-.3c0-.1 0-.2.1-.3.1-.2.2-.5.3-.5.3 0 .5.2.6.5l1.5-3.3c.2-.4 1-1.1 1-1.6.4-1.6.4-2 .7-3.4.2-.3-.2-.9-.9-.9zm-.4 44.4h.1l.1.1c0 .2 0 .4-.1.7-.3-.2-.1-.5-.1-.8z"/>
    <path fill="#fff" d="M115.6 41.1s0-.1-.1-.1h-.1s0 .1.1.1h.1zM123.5 43.8v-.1h-.1c0 .1-.1.1-.1.2l.1.1s.1-.1.1-.2zM166.4 11.3c0 .1 0 .1 0 0l-.1-.4c-.2.1-.1.2.1.4zM172.4 44.8c.2.1.3.2.4.2 0-.2 0-.4-.2-.6v.1c-.1.2-.1.2-.2.3zM165.2 11.3c.1 0 .1 0 0 0h.1s0-.1-.1 0zM146.7 13.8v.2h.1c-.1-.1-.1-.2-.1-.2zM147.5 10.6c.1-.1.1-.2 0-.2l-.1.4c0-.2 0-.2.1-.2z"/>
    <path fill="#fff" d="M176.4 59.3c-.1 0-.3-.2-.3-.3 0-.3.1-.6.2-.9.1.1.2.1.3.2v-2c0 .1 0 .1-.1.2 0 .1-.1.1-.2.2l.1.1h-.2v-.1c-.1.1-.1.1-.2.1-.3 0-.4-.2-.4-.4 0-.1 0-.2-.1-.3l-.1.1-.2-.2c.1 0 .1.1.2.1 0-.1-.1-.2-.1-.4.2-.2.5-.4.8-.7.2-.1.1-.5.3-.6V52c-.2.3-.6.4-.9.6.2-.3.3-.6.4-.9.1-.1.1-.3.1-.5-.2 0-.4-.1-.6 0-.4.1-.7.2-1.1.3h-.2s.1-.1.2-.1c.3-.2.6-.4 1-.5.4-.1.7-.1 1.1-.2v-.4h-.5s-.1-.1-.1-.2c-.5 0-.8-.2-.9-.6.6-.2.7.2.9.6.1-.1.2-.1.3-.2h.2c-.2-.3-.4-.5-.8-.6l-1.1-.2c-.5-.1-.9-.5-1-1-.3.2-.6.3-.9.1-.8-.5-.9-.6-.6-1.5.5.3.9.5 1.4.8l-.1-.4c-.1 0-.2 0-.3-.1-.2-.1-.2-.3 0-.4h.2s0 .1.1.1l-.1-.6c-.2 0-.3 0-.5-.1v-.2h-.1c-.2-.5-.9-.7-.9-1.5.3.2.5.3.6.4.1-.2.2-.3.3-.4-.1 0-.1-.1-.2-.1-.8 0-.2-.4-.1-.5l.4-.4-.5-2.7c-.5 0-.5 0-1-.5.4-.1.5 0 1 .3l-.5-2.4c-.1 0-.3 0-.5-.1s-.3-.2-.5-.2h-.4c-.2-.4-.3-.8-.5-1.3.4-.1.6.1.7.4.2.3.4.6.6.7h.1v.1c.2.1.3.1.5.1l-.5-2.4s0-.1-.1-.1h.1l-.1-.6-.8-4.2c-.4-.1-.8-.2-1-.6.3 0 .5 0 .7.1.1 0 .2 0 .2.1l-.9-4.6c0-.1-.1-.1-.2-.2 0-.1.1-.1.1-.2l-.4-2.2h-.1c-.2-.1-.4-.1-.7-.2.2 0 .4-.1.6-.1h.1l-.8-3.9-.1-.1c0-.2 0-.4-.3-.3l-.1-.1c.1-.2.1-.3.2-.4l-.2-.9-.1-.1c-.2-.4-.4-.7-.5-1.1 0-.1.1-.3.2-.5l-.1-.7v-.2l-.2-1.2c-.1-.1-.1-.2-.2-.3-.1-.1-.2-.1-.3-.2v-.1h.1c.1 0 .1.1.2.1-.1-.1-.2-.1-.2-.1-.2 0-.8.8-.8 1v.2c0-.1-.1-.1-.1-.2 0-.2-.1-.4 0-.5 0-.4-.1-.7-.6-.8-.1 0-.2-.1-.3-.2.1 0 .2 0 .3-.1.1 0 .2-.1.2-.1.2-.6.5-.8 1-.8h.6l-.2-1c-.1 0-.2 0-.2.1-.1 0-.1.1-.2.1l-.1-.1c0-.1.1-.2.2-.2h.3v-.2c-.1-.1-.2-.1-.3-.3.1-.1.1-.1.2-.1l-.1-.4s-.1 0-.1-.1c0 0 0-.1.1-.1l-.3-1.7s-.1-.1 0-.1l-.2-1.1c0 .1-.1.2-.1.4l-.3-.3c-.1-.3-.3-.5-.7-.3-.3.1-.3 0-.2-.2-.1-.4.1-.5.4-.4.3.1.5.1.7 0l-.5-2.4-.1-.5c-.1-.5-.6-.9-1.1-.9h-1.9V1.4c0-.1-.1-.1-.1-.1v-.1h-3.4s-.1.1-.1 0v.4c0 .1 0 .2-.1.3-.1-.1-.1-.2-.2-.2v-.2-.3h-2.4c-1.7-.1-2.8 0-3.4.1-2 .1-2.8-.6-2.9 2.6l-.1.1h-.1l-.2.7-1.2 5.6c.1.2.2.4.4.6.1.1.1.2.2.3-.1 0-.3 0-.4.1h-.2c-.1 0-.2-.1-.2-.1l-.6 2.6c.1 0 .1 0 .1.1v.2c0-.1 0-.1.1-.2 0-.1.1-.2.1-.3.1.2.3.3.3.5 0 .3-.2.5-.3.8.1 0 .3.1.4.1.1 0 .2.1.2.2s-.1.2-.1.3h-.2c-.1-.1-.2-.1-.3-.2v-.1c-.1-.1-.3-.2-.4-.2v.3c.4.4.6.9.7 1.5 0 .3.1.6.4.6.1-.2.3-.5.5-.7v-.1h.1c0-.1.1-.1.1-.2s.2-.1.2-.1c.1.4.5.2.7.4.3.3.2.5.2.8-.1-.1-.2-.3-.3-.4 0 0-.1-.1-.2-.1 0 0-.1.1-.1.2v.1c.1.3.3.5.4.7.3-.1.5-.2.8-.3.1 0 .2-.1.3-.1.1 0 .2 0 .2.1.1.3.2.5.2.8l-.1.1c-.1 0-.1-.1-.2-.1h-.1c0 .1-.1.1 0 .2.2.3.1.6-.2.8v.3c.1.1.1.2.1.3h-.1v.2h-.1c-.1 0-.3.1-.4.1.1-.2.3-.1.4-.1h.1v-.2c-.5-.1-.7-.1-.9-.2v.4s0 .1-.1.1c0 0-.1-.1-.1-.2v-.1c.1-.1.1-.2.1-.3v-.3c0-.2-.1-.4-.2-.6-.1-.3-.2-.5 0-.8.1-.3-.2-.7-.4-.8-.1 0-.2 0-.2.1-.1.1-.2.1-.4.1-.1.2-.1.3-.2.5-.1.1-.1.2-.2.3-.4.3-.4.3-.2.6 0 .1.1.1.1.2 0 0 0 .1-.1.1h-.2s-.1-.1-.1-.2c-.1-.3-.2-.6-.3-1 0-.1-.1-.1-.1-.1-.3-.2-.1-.3 0-.4h.2c.2.1.1.5.4.5-.1-.2-.1-.4-.2-.6-.1-.2-.1-.3-.1-.5.1-.4-.1-.7-.4-1l-1.2 5.8-.1.1-.3 1.6h.1c0-.1.1-.3.1-.4 0-.1.1-.2.2-.2s.2.1.2.2c0 .3.1.6.4.8v.1c-.1.1-.2.3-.2.3-.2-.1-.5-.2-.7-.3-.1-.1-.1-.1-.1-.2l-.2 1.1c.2 0 .3-.1.5-.1.1 0 .1 0 .2.1 0 .1-.1.2-.1.2-.2.1-.4 0-.5-.2l-.5 2.5s.1 0 .2.1c.2.1.3.1.5.1 0 0 .1.1.2.1 0 .1-.1.1-.1.1-.1.1-.2.2-.4.3 0 0-.1 0-.1.1 0 0-.1 0-.1-.1-.1-.2-.2-.2-.3-.2l-.5 2.6c0 .1 0 .1.1.2l-.1.1-2.5 11.9c.3-.1.5 0 .5.3 0 .1-.1.1-.1.2-.1-.1-.3-.2-.4-.3l-.4 2c-.1.5-.6.9-1.1.8l-1-.1c-.3 0-.6.1-.8.4.1 0 .1.1.2.1v.1l-.1.1h-.2v8.2c0 .5.4 1 .9 1l4.3.6.1-.1.5.1v-.1c0-.1-.2-.2 0-.3l.2.2v.2l4.9.7c-.1-.1-.1-.2-.1-.3l.1-.1.3.3s-.1.1-.2.1l4.8.6h.4s0-.1-.1-.1c0 0 .1-.1.1 0 .1 0 .1.1.2.1.2-.1.4-.4.4-.7v-8.5c0-.5-.4-.9-.8-1-.1 0-.2 0-.3-.1l-1-.1c-.5-.1-.8-.5-.7-1l.5-2.6c.1-.5.6-.8 1.1-.8l6.3.7c0-.1 0-.3-.1-.3-.1-.2-.4-.2-.6-.3-.3-.1-.3-.1-.7-1.1.7-.2.8.5 1.2.7.5.2.8.5 1.3.8v.2c-.1 0-.2.1-.3.1l1.3.1h.2c.1-.1.3-.2.5-.2 0 .1-.1.3-.1.4.3.2.4.5.5.7l.2 1.1v-.6c.2 0 .4.1.6.1.3.1.5.2.7-.1 0-.3-.3-.6.1-.8.1 0 .1-.2 0-.3-.1-.3-.1-.5 0-.9 0-.1-.1-.4-.2-.5-.1-.1-.4 0-.5.1-.4.6-.8.3-1.4.1.3-.1.4-.2.5-.2.7-.1.7-.1.7-.7v-.2c-.3-.8.2-1.4.6-2.2.3.1.5.3.7.4-.3.5-.6.9-1 1.3.2.3.4.5.6.7h.1c.2.2.5.3.7.4 0 0-.1.1 0 .2-.1.2-.1.3-.2.4-.4.5-.5.9 0 1.4-.2.3-.3.7-.7.7.1.3 0 .5-.4.7-.3.1-.5.2-.8.4l.3 1.4c.1.5-.2.8-.7.8l-1.2-.2.6.3c0 .1-.1.1-.1.2-.3-.1-.6-.3-.9-.4h-.2c-.2.1-.3.3-.3.6v4.8c.3.1.5.1.7.2 0 .6-.5.2-.6.3 0 .1-.1.2-.1.4v.3l.1.1v.8c.1.2.3.3.5.4.3.1.6.2.6.7-.3 0-.7 0-.8-.1-.1-.1-.2-.2-.3-.2v1.1c0 .1 0 .2.1.3.4.3.8.6 1.2.8l3.6.7c0-.2 0-.3-.2-.5l.6-.6c-.3-.5-.8-.1-1.2-.5.1-.2.2-.5.4-.9.4.3.7.5 1.1.8.3 0 .7 0 .8-.5.2-.4.5-.4.8-.3.5.2.9.1 1.4-.2.5-.4 1-.4 1.4.1.1.1.3.2.4.3-.1.2-.1.4-.2.6.3.3.5.6 1 .6 0-.2.1-.5.2-.8.3.4.4.6.6.8.4.5.8.5 1.1 0 .3-.3.4-.5.7-.6.1 0 .2-.1.4-.1-.1-.3-.1-.5-.2-.8.5-.1.7.2.9.5.2.3.3.6.4 1 0 .1 0 .3-.1.5v-.1l.1.1s-.1 0-.1.1.1.3-.1.3h-.1v-.1c-.8.7-.7.9.2 1.7 0 .2-.1.5-.1.7l.5.1c.5.1.9-.2.9-.7v-.3c-1-1-1-1-1.1-1zm-26.3-42.5c-.2.1-.4.2-.7.1.2-.2.3-.3.6-.4 0 0 .1 0 .2.1-.1.1-.1.2-.1.2zm4.9 14.6c-.5 0-.8-.5-.7-1l.1-.7c-.1-.1-.3-.3-.4-.5.1-.1.3-.2.4-.2l.2.2.2-1-.1-.1.1-.1h.1l.6-3c-.3.3-1 .4-1.3.1-.1-.1-.1-.3-.1-.5.3.1.5.2.8.3h.1c0-.3 0-.5-.1-.7.7-.1 1-.1.3-1.1.1-.1.1-.2.2-.3h-.3c-.1 0-.3-.1-.3-.3-.1-.2-.1-.4-.1-.6l.1-.1h.1c0 .3.3.4.5.6h.2c.1-.1.2-.3.3-.5h.1l.8-3.9c.1-.5.3-.5.4 0l.6 3.2c0 .1.1.2 0 .3l.4 2.2c.1 0 .1-.1.1 0l.2.2s-.1.1-.2.1h-.1l.2.8v.1l.2.9c.5-.2.7.3.9.5.3.3.2.3-.3.9-.2-.4-.3-.7-.5-1.1l1 4.9c.1.5-.2.9-.7.8l-4-.4zm20.6 21.3c-.2.1-.3.3-.5.4 0 0 0-.1-.1-.1l.6-.3z"/>
    <path fill="#fff" d="M149.2 18.3l.1.1h.1s0-.1-.1-.1h-.1zM166.7 57.6v.2h-.1c-.3-.2-.4-.4-.2-.5-.2.1-.5.2-.8.3 0 .3-.1.7 0 1l1.2.2v-.4l-.2.2-.1-.1.2-.2s.1 0 .1.1v-1c-.1-.1-.2 0-.1.2zM169.5 59.2c0-.2.1-.3.2-.5-.2.2-.4.3-.6.4l.4.1zM169.4 56.4c-.5.3-1 .5-1.4.8-.1.1-.1.2-.2.2l-.1-.1c-.1 0-.2.1-.3.1.2.7.4.8 1.7 1 .1-.3.3-.6.4-.9h-.1v-.1l.1-.1v.1s0-.1.1-.2c.3.1.5.2.8.3-.1-.5-.7-.7-1-1.1zM171 57.7c0 .3.1.5.1.7 0 .1-.1.1-.1.2h.1c.1.1.2.3.3.4-.1.1-.2.1-.3.1-.1-.1-.2-.2-.3-.1 0 .1-.1.1-.1.2l1.3.3c-.1-.2 0-.4.2-.8l.4.4c.1.3.3.6.6.4.3-.1.6-.4.7-.7.1-.3.1-.7.1-1.1-1 .6-2 .1-3 0zM174.2 60v-.3c0 .1-.1.2-.2.2l.2.1z"/>
    <path fill="#fff" d="M149.8 19l.1-.1c0-.3-.1-.6-.2-1 0-.1-.1-.1-.2-.2-.1.1-.2.1-.2.2 0 .2-.1.3-.1.5-.1.1-.1.2-.2.4.5.1.7.1.8.2z"/>
    <path fill="#DC3836" d="M49.2 77.9c.2.1.4.3.4.6l.9 3.3c.1.4 0 .7-.3 1-.8.9-1.9 1.5-3.1 1.8-1 .3-2 .3-3 0s-1.9-.8-2.6-1.5c-.7-.7-1.2-1.6-1.5-2.6-.3-1-.3-2 0-3s.8-1.8 1.5-2.6 1.6-1.2 2.6-1.5c1-.3 2-.3 2.8-.1.2 0 .3.1.4.2.1.1.2.3.2.4.1.3 0 .5-.1.7-.1.2-.3.4-.5.5h-.5c-.6-.1-1.2-.1-1.8.1-.7.2-1.2.5-1.7 1s-.8 1-1 1.7c-.2.6-.2 1.3 0 2s.5 1.3 1 1.7c.5.4 1 .8 1.7 1 .7.2 1.3.2 2 0l.9-.3c.3-.1.6-.3.8-.4l-.5-2-1.5.4c-.3.1-.5 0-.7-.1-.2-.1-.4-.3-.4-.6-.1-.3 0-.5.1-.7.1-.2.3-.4.6-.4l2.5-.7c.4-.1.6-.1.8.1zM59.3 80.1c.2.1.3.3.4.6 0 .3 0 .5-.2.7-.2.2-.4.3-.6.4l-5.3 1c-.3 0-.5 0-.7-.1-.2-.1-.4-.4-.4-.6L50.7 73c0-.3 0-.5.1-.7.2-.2.4-.4.6-.4l5.3-1c.3 0 .5 0 .7.1.2.1.3.3.4.6 0 .3 0 .5-.1.7-.2.2-.4.3-.6.4l-4.3.8.5 2.7 3.5-.7c.3 0 .5 0 .7.1.2.1.3.3.4.6 0 .3 0 .5-.1.7-.1.2-.4.3-.6.4l-3.5.7.6 2.9 4.3-.8c.2-.2.5-.1.7 0zM69.1 69.2c.2.1.3.4.3.6l1.3 9.2c0 .3 0 .5-.2.7-.2.2-.4.3-.7.4h-.4c-.2 0-.3-.1-.3-.2l-6.8-6.6.9 6.8c0 .3 0 .5-.2.7-.2.2-.3.3-.6.3s-.5 0-.7-.2c-.2-.2-.3-.4-.3-.6l-1.3-9.2c0-.3 0-.5.2-.7.2-.2.4-.3.7-.4h.5c.2 0 .3.1.4.2l6.8 6.6-.9-6.8c0-.3 0-.5.2-.7.1-.2.3-.3.6-.3.1 0 .3.1.5.2zM79.9 77.8c.2.2.3.4.3.6 0 .3-.1.5-.2.7-.1.2-.4.3-.7.3l-5.3.4c-.3 0-.5 0-.7-.2-.2-.2-.3-.4-.3-.7l-.7-9.2c0-.3.1-.5.2-.7.2-.2.4-.3.7-.3l5.3-.4c.3 0 .5 0 .7.2.2.2.3.4.3.7 0 .3-.1.5-.2.7-.2.2-.4.3-.7.3l-4.3.3.2 2.7 3.6-.3c.3 0 .5 0 .7.2.2.2.3.4.3.7 0 .3-.1.5-.2.7-.1.2-.4.3-.7.3l-3.6.3.2 3 4.3-.3c.4-.3.6-.2.8 0zM91.1 77.7c.1.1.1.3.1.4 0 .2-.1.4-.2.5-.2.2-.4.3-.7.3-.3 0-.5 0-.7-.2-.8-.4-1.2-1.3-1.2-2.6 0-.4-.1-.7-.4-.9-.3-.2-.6-.3-1.1-.3l-3 .1.1 3.1c0 .3-.1.5-.2.7-.1.2-.3.3-.6.3s-.6-.1-.8-.3c-.2-.2-.3-.4-.4-.7l-.2-9.1c0-.3.1-.5.3-.7.2-.2.4-.3.7-.3l4.6-.1c.6 0 1.1.1 1.6.4.5.3.9.7 1.2 1.2.3.5.5 1.1.5 1.8 0 .5-.1 1.1-.4 1.6-.3.5-.6.9-1.1 1.2.7.5 1.1 1.1 1.2 1.9 0 .2.1.3.1.5.1.3.1.6.1.7.1.1.1.3.3.3l.2.2zm-3.2-4.6c.2-.2.3-.4.4-.7.1-.3.2-.6.2-1 0-.3-.1-.6-.2-.8-.1-.3-.3-.4-.5-.6-.2-.1-.4-.2-.6-.2l-3.5.1.1 3.6 3.5-.1c.3-.1.4-.2.6-.3zM101.7 78.4c0 .3-.1.5-.3.7-.2.2-.4.3-.6.2-.2 0-.4-.1-.5-.2-.1-.1-.3-.3-.3-.5l-.8-2-4.8-.2-.9 1.9c-.1.2-.2.4-.4.5-.2.1-.3.2-.5.1-.3 0-.5-.1-.6-.3-.1-.1-.2-.4-.2-.6 0-.1 0-.2.1-.3l4.3-9.4c.1-.2.2-.4.4-.5.2-.1.4-.1.6-.1.2 0 .4.1.5.2.2.1.3.3.3.5l3.6 9.5c.1.3.1.4.1.5zm-6.4-3.7l3.2.1-1.5-3.7-1.7 3.6zM111 69.1c.2.2.2.4.2.7 0 .3-.1.5-.3.6-.2.1-.4.2-.7.2l-2.5-.2-.7 8.4c0 .3-.1.5-.4.7-.3.2-.5.2-.8.2-.3 0-.5-.1-.7-.3-.2-.2-.3-.4-.2-.7l.7-8.4-2.5-.2c-.3 0-.5-.1-.7-.3-.2-.2-.2-.4-.2-.7 0-.3.1-.5.3-.6.2-.1.4-.2.7-.2l7.1.6c.4-.1.6 0 .7.2zM113.7 80.2c-.2.2-.5.2-.7.2-.3 0-.5-.2-.7-.4-.2-.2-.2-.5-.2-.7l1.1-9.2c0-.3.2-.5.4-.7.2-.2.5-.2.8-.2.3 0 .5.1.7.4.2.3.2.5.2.7l-1.1 9.2c-.2.3-.3.5-.5.7zM126.1 79.7c-.6.8-1.4 1.4-2.3 1.7-.9.4-1.9.5-2.9.3s-1.9-.6-2.6-1.2c-.7-.6-1.3-1.4-1.6-2.4-.3-1-.4-1.9-.2-3 .2-1 .6-2 1.2-2.8.6-.8 1.4-1.4 2.3-1.7.9-.4 1.9-.5 2.9-.3s1.9.6 2.6 1.2c.7.6 1.3 1.4 1.6 2.4.3 1 .4 1.9.2 3-.1 1.1-.5 2-1.2 2.8zm-.9-5.1c-.2-.6-.5-1.1-.9-1.6s-1-.7-1.6-.8c-.6-.1-1.2 0-1.8.2-.6.3-1 .6-1.4 1.2-.4.6-.6 1.1-.8 1.9-.2.8-.1 1.4.1 2 .2.6.5 1.1.9 1.6.4.4 1 .7 1.6.8.6.1 1.2 0 1.8-.2.6-.2 1-.6 1.4-1.2.4-.5.6-1.1.8-1.8.1-.8.1-1.4-.1-2.1zM139.4 74.4c.1.2.1.4.1.7l-2.2 9.1c-.1.3-.2.5-.4.6-.2.1-.5.2-.7.1-.1 0-.3-.1-.4-.2l-.3-.3-3.9-8.6-1.6 6.6c-.1.3-.2.4-.4.6-.2.1-.4.2-.7.1-.3-.1-.4-.2-.6-.4-.1-.2-.1-.4-.1-.7l2.2-9.1c.1-.3.2-.5.4-.6.2-.1.5-.2.7-.1.2 0 .3.1.4.2l.3.3 3.9 8.6 1.6-6.7c.1-.3.2-.4.4-.6.2-.1.4-.2.7-.1.3.1.5.3.6.5z"/>
    <path fill="#fff" d="M79.8 1.3s-.1 0-.2.1c0 .1.1.1.1.2 0-.1.1-.2.1-.3zM95.7 1.1V1h-.1v.2c0-.1 0-.1.1-.1zM84.4 1.2c0 .2.1.4.1.4.3 0 .5 0 .8-.1.1-.1.3-.2.4-.2h-.1v-.1c0-.1.2-.2.3-.2.1-.1.1-.2.2-.3h-1.5V1c.1.1.2.1.3.2h-.5z"/>
    <path fill="#fff" d="M96.6 39.1c0-.5-.4-.9-.9-.9h-6s-.1 0-.1.1l-.1-.1h-2.6c-.5 0-.9.4-.9.9V41c.2.2.5.3.7.5.1.1 0 .3 0 .4H86.4c-.1-.1-.2-.3-.3-.4 0 .5-.4.9-.9.9h-3.8c0 .1-.1.1-.2.2 0-.1-.1-.1-.1-.2h-.2c-.5 0-.7-.4-.5-.8L83 36v-.3c0 .1.1.1.1.2l2.1-4.5c-.6 0-.8-.1-1-.9.3.3.6.6 1 .9l.8-1.8c-.3-.1-.5-.2-.7-.3h-.2c-.2-.1-.4-.1-.5-.2.3-.2.6-.3.9-.1.1-.1.2-.2.3-.2h.1v.1l-.3.3c.1.1.3.3.4.6l5.5-12.1c-.2-.1-.2-.3-.1-.5.1 0 .3 0 .3.1l1.1-2.3s-.1 0-.1-.1v-.1c.1 0 .1 0 .2.1l2.1-4.6s.1-.1.1-.2l.6-1.2c-.2-.1-.3-.2-.5-.3l.1-.2c.2.1.3.2.5.3v-.1s-.1-.1-.1-.2c.2-.3.3-.6.5-.8l.2-.4c.1-.2.2-.5.3-.8-.3-.1-.6-.2-.9-.4l-.3-.3s.1-.2.2-.2c.2 0 .3 0 .4.1.2.1.4.3.6.4 0-.2.1-.4.1-.6V1.6c0-.4-.3-.7-.6-.9 0 0 0 .1.1.1V1c0 .2 0 .4-.1.7 0 .1-.1.1-.1.2l-.1-.1c-.2-.2-.4-.4-.5-.6-.1-.2-.3-.5-.2-.5 0 0 .1 0 .1-.1h-4.1c.1 0 .1.1.2.1-.5.2-.5.3-.6.3-.2 0-.4 0-.4-.3h-3.2c0 .1.1.2.1.2 0 .1-.1.3-.2.6-.2-.3-.4-.5-.3-.6 0-.1.1-.2.1-.3h-.5c0 .3-.2.5-.5.6-.1 0-.1.2-.1.3 0 .1.1.2.2.2.7.3.4.9.3 1.4 0 0 0 .1-.1.1l-.1-.1c0-.1 0-.2-.1-.2-.1-.2.2-.6-.3-.5-.3.1-.8 0-.7.6 0 .1-.1.3-.2.4 0-.1-.1-.3-.1-.4v-.2l-.3-.3.2-.2c0-.1 0-.2-.1-.3-.1-.2-.3-.2-.5-.4-.2-.3-.3-.2-.5 0h-.2c-.2-.2-.4-.6-.4-.8V.7h-.7-.2c-.1 0-.1.1-.2.1-.3.3-.4.1-.5-.1h.1-.1c-.1 0-.2.1-.2.1 0 .3-.2.5-.5.6.2.2.3.4.5.5h.3s.2.1.1.2c0 0 0 .1-.1.1.1 0 .1.1.2.2v.2c-.1.1-.2.1-.4.2v-.2l-.1.1c-.1-.1-.3-.1-.4-.2.2 0 .2.1.1.2s-.3.1-.5.1-.2-.2-.1-.3l.3-.3-.3-.3c0-.1-.2-.2-.3-.1h-.1c.1.2 0 .5-.2.7-.1.1-.3.1-.3-.1v-.3c-.1-.3-.5-.5-.7-.3 0 0 0 .1-.1.1L78.2.8v.5s0 .2-.1.4c-.2-.1-.4-.3-.5-.4l-.3-.6h-3.2c0 .1 0 .3-.1.4-.1-.1-.1-.2-.2-.2 0 0-.1.1-.2.1l-.1-.1.1-.1h-3.8c-1.1 0-1.9.9-1.9 1.9v1.2c0 .2.1.5.2.6-.1 0-.2 0-.3.1v2.8h.1v2.1l-.1.1v-.1c0-.3.1-.6.1-.9 0-.1 0-.1-.1-.2h-.1v5.2h.2c0 .2.1.4.2.5 0 .1 0 .1.1.2s.3.2.3.3h.1l4.5-.1 4.5.1c.5 0 .9-.4.9-.9v-1.3c0-1.1.9-1.9 1.9-1.9h.9l-.2-.5.1.1h1c.3 0 .5.2.6.4.1 0 .3-.2.4-.4h.3s.1.1 0 .2c0 .1-.1.3-.1.4 0 .1-.1.1-.1.2.1 0 .2.1.3.1 0 .1-.1.2-.1.2-.1.1-.3.2-.4.3v.1c-.1 0-.2 0-.3-.1 0 .1-.1.1-.1.1h-.1l-2.1 4.7c-.1.1-.1.3-.1.4l-.8 1.8c.4 0 .7.1 1 .6-.5 0-.8-.2-1-.4L78 21.4V22l-.1-.1s0-.1-.1-.1L76.4 25v.1c0 .1-.1.2-.1.3l-.1.2c.3 0 .5.3.8.4 0 0 0 .1-.1.2l-.9-.3-2 4.4c.3.4.5.7.8 1.1 0 0-.2.3-.3.3-.3 0-.7 0-.4-.5.1-.3 0-.5-.1-.7L72.8 33h.2s.1.1.1.2H73l-.1-.1-.2.4c.1.1.3.2.3.3.1.2.1.4.1.7H73c-.4 0-.4 0-.3.3h.1c0 .1 0 .1-.1.1h-.1c0 .1 0 .3-.1.4-.2 0-.3-.1-.5-.1-.1-.1-.2-.1-.2-.2l-.5 1.1c.4 0 .5.2.6.8-.3-.2-.5-.4-.8-.5L70 38.7h.1l-.1.1-1 2.3c.1 0 .1 0 .3.1-.2.1-.2.1-.3.1l-1.5 3.2.3.3c.2.3 0 .5-.3.8-.1-.2-.2-.3-.2-.5l-.4.9h.1c.3.1.5.4.1.8-.2-.1-.3-.2-.5-.3l-.3.6c-.1.6-.3 1.4-.3 1.9v2.5c0 .2.1.4.2.6-.1-.2-.1-.3-.1-.4 0-.1.2-.2.3-.3l.2.2c0 .2-.1.3-.3.5.1 0 .3 0 .4.1 0 0 0 .1.1.1h-.1c.1 0 .2.1.3 0h.6c-.2-.1-.4-.2-.5-.3.3-.2.5-.3.7-.4.3.4.3.4.1.8l4.2-.1v-.1c0-.1.2-.3.4-.5.1.3.3.4.3.5l4.3-.1c.1 0 .1 0 .2-.1h.4v.1L81 52c-.2-.4-.4-.8-.7-1.3.7.2.7.8 1.1 1.2v.1l14.3-.3c.5 0 .9-.4.9-.9V39.1zM81.5 2.8c0-.1 0-.1 0 0 .1 0 .1 0 0 0v.1c-.1 0-.1-.1 0-.1zm-2.5 0c0 .1.3.3.5.3.2.1.3.1.4.4 0 .1.2.2.3.2.1.1.1.2.1.3v.1l.2.2.1-.1c0 .1.1.2.1.2-.1.1-.2.3-.4.5v-.1s0 .1-.1.1c0 0-.1 0-.1-.1 0-.3-.1-.3-.3-.4-.1 0-.3 0-.4-.1l-.1-.1.1-.1h.2c.2 0 .2-.1.1-.2s-.2-.3-.3-.4c-.1-.1-.2-.3-.3-.3-.1 0-.1 0-.2.1l-.4-1.1c.3.1.4.3.5.6z"/>
    <path fill="#fff" d="M82.7 10.8v.1l-.2.4v-.1l.2.1-.1-.1.4-.4c-.1.1-.2 0-.3 0zM60.5 51.7c0 .1.1.1 0 0 .1.1 0 .1 0 .1.1-.1.2-.1.3-.2v-.2c-.1.1-.3.1-.3.3z"/>
    <path fill="#fff" d="M61.1 2.8C61.1.4 58.9.6 58.9.6H46.5c-2.6 0-2.2 2.2-2.2 2.2V9.4c.1 0 .2-.1.2 0l.1.1h.2c.1 0 .1-.1.2-.2 0-.1.1-.1.2-.2 0 .1.1.2.1.3 0 .1 0 .2.1.3 0 .3-.2.4-.5.3l-.6-.3v.2c0 .5.4.9.9.9h1.2c.1-.1.1-.1.3-.1 0 0-.1-.1-.1-.2-.1-.3-.2-.5-.2-.8 0-.1.1-.3.2-.3.1-.1.3-.1.5-.1l.1.1s0 .1-.1.1c-.3.2-.1.3.1.5l.3.3c-.1.2-.2.3-.3.5l.1.1-.1.1h-.1c.2.2.3.4.3.7v1c.4.2.6.6 1 .8v.4s-.3.1-.3 0c-.3-.3-.4-.1-.6.1l-.1.1v4.7c0 .1.1.2.1.3 0 0-.1 0-.1.1v7c.1 0 .2-.1.3-.1 0 0 .1 0 .1.1v.1c-.1.1-.2.2-.4.3l-.1-.1v12.3c.1 0 .1 0 .2.1 0 .1-.1.1-.1.2h-.1v4.4c0 .2-.1.4-.2.6.1.1.2.3.2.5l-.1.1c-.1-.1-.3-.2-.4-.3-.1 0-.2.1-.4.1l-1.4-.2c-.5 0-.9.5-.9 1v.1l.1.1s0 .1-.1.1v3.1c.2 0 .3.1.4.1 0-.1-.1-.1-.1-.1v-.1s.1 0 .1.1c0 0 0 .1-.1.2.2 0 .4.1.6.2.1-.1.1-.1.1-.2-.1-.2-.2-.4-.4-.7.4.1.7.2 1 .3v.1l.1.1s-.1.1-.1.2c0 0 0-.1-.1-.1l-.3.9c-.5-.2-.8-.3-1.2-.4-.2.3-.2.5-.3.8v.3c0 .2.1.5.2.7.1-.2.3-.2.4-.1.1 0 .2.1.2.2 0 .2-.2.3-.3.3.1.1 0 .2-.3.5-.1-.2 0-.4 0-.7 0 0-.1-.1 0-.2-.1 0-.1-.1-.2-.1v2.5c0 .5.4.9.9.8l3.6-.3c-.3-.1-.4-.3-.4-.5 0-.1 0-.2.1-.2h.3c.1 0 .1.1.2.2s.1.2.2.3v-.1s0 .1.1.1c0 0-.1 0-.1.1l.1.1 2.7-.3c0-.1.1-.1.2-.2 0 .1 0 .1.1.2l2.9-.3c.1-.3.2-.5.3-.8.1-.4.4-.4.7-.2-.1.3-.2.6-.4.9l1.3-.1c-.2-.1-.3-.3-.6-.5.3-.1.4-.1.7-.2-.2-.3-.4-.5-.5-.8 1.2.1 1.3.3.6 1.5l1.6-.1c.2-.7.3-.7 1.1-.5.2.1.4.2.6.2.2-.1.4-.3.5-.5-.1-.1-.1-.2-.2-.3-.2.1-.3.2-.4.2l-.2-.2c.1-.1.2-.1.3-.2 0-.2.1-.4.1-.6-.1-.2-.3-.3-.5-.5.1-.6.4-.9.9-1 .4.5-.1.7-.2 1.1.1.2.3.5.4.7v-7.3c0-.5-.4-.9-.9-.9l-1.2.1h-.3c-.1.1-.2 0-.3-.2l-.1-.1c-.1-.2-.2-.3-.2-.5v-6c-.3-.1-.6-.3-1-.8.3.1.7.2 1 .3v-6.2c-.1-.1-.2-.2-.3-.4h.3v-13h-.4l.3-.3s0-.1.1-.1v-4.5c0-.4.2-.7.5-.8-.1-.1-.3-.1-.4-.2 0 .1 0 .1-.1.2-.2 0-.3-.1-.5-.1-.2-.1-.4-.1-.7-.2-.1 0-.2 0-.3.1-.1 0-.1.2-.2.2h-.5c.1-.1.1-.3.2-.4.2-.2.5-.3.8-.4.2 0 .4.1.6.2.1 0 .2.1.3.1 0-.1.1-.2.1-.3 0-.4.5-.7.8-.6 0 0 .1.1.1.2s-.1.2-.1.3c-.3.4-.1.5.3.6.3 0 .6.1 1 .1h.3c.5 0 .9-.4.9-.9V7.1c.1-.3.2-1.8.2-4.3z"/>
</svg>
