<svg xmlns="http://www.w3.org/2000/svg" width="24" height="24" fill="none" viewBox="0 0 24 24">
    <path fill="#fff" d="M20.53 19.46L15.18 14c.972-1.184 1.506-2.668 1.51-4.2.004-1.528-.51-3.012-1.46-4.21-.948-1.197-2.275-2.037-3.763-2.383-1.488-.346-3.05-.176-4.429.48-1.38.658-2.495 1.763-3.165 3.136-.67 1.373-.854 2.933-.522 4.425.332 1.491 1.16 2.826 2.348 3.786 1.189.96 2.668 1.488 4.196 1.498 1.527.01 3.014-.498 4.215-1.442l5.36 5.43c.069.07.151.127.242.164.092.038.19.057.288.056.099 0 .196-.019.287-.056.091-.038.174-.094.243-.164.14-.14.22-.331.22-.53s-.08-.39-.22-.53zM4.75 9.8c-.004-1.032.298-2.042.868-2.902.57-.86 1.382-1.533 2.334-1.932.951-.399 2-.507 3.013-.31s1.945.69 2.678 1.415c.734.727 1.235 1.654 1.441 2.665.207 1.011.109 2.06-.28 3.016-.39.956-1.055 1.774-1.91 2.352-.855.578-1.862.89-2.894.896-1.385.005-2.716-.54-3.7-1.514-.985-.975-1.542-2.3-1.55-3.686z"/>
</svg>
