<svg xmlns="http://www.w3.org/2000/svg" width="24" height="24" fill="none" viewBox="0 0 24 24">
    <path fill="#fff" d="M21 5.75H3c-.199 0-.39-.079-.53-.22-.141-.14-.22-.331-.22-.53s.079-.39.22-.53c.14-.141.331-.22.53-.22h18c.199 0 .39.079.53.22.141.14.22.331.22.53s-.079.39-.22.53c-.14.141-.331.22-.53.22zM21 12.75H3c-.199 0-.39-.079-.53-.22-.141-.14-.22-.331-.22-.53s.079-.39.22-.53c.14-.141.331-.22.53-.22h18c.199 0 .39.079.53.22.141.14.22.331.22.53s-.079.39-.22.53c-.14.141-.331.22-.53.22zM21 19.75H3c-.199 0-.39-.079-.53-.22-.141-.14-.22-.331-.22-.53s.079-.39.22-.53c.14-.141.331-.22.53-.22h18c.199 0 .39.079.53.22.141.14.22.331.22.53s-.079.39-.22.53c-.14.141-.331.22-.53.22z"/>
</svg>
